<?xml version="1.0" encoding="UTF-8"?>
<svg version="1.1" xmlns="http://www.w3.org/2000/svg" width="360" height="363">
<path d="M0 0 C0.33 1.32 0.66 2.64 1 4 C0.01 3.67 -0.98 3.34 -2 3 C-28.00005863 1.8317633 -54.60037321 7.10472795 -75.125 24 C-81.32141842 29.74612577 -87.47073494 38.51572126 -89 47 C-87.68 47.33 -86.36 47.66 -85 48 C-83.29537979 53.15428642 -82.71746584 57.74508597 -82.8125 63.1875 C-82.81386963 63.93725098 -82.81523926 64.68700195 -82.81665039 65.45947266 C-82.85257908 69.70451537 -83.23951915 73.6811998 -83.9375 77.875 C-85.58071582 95.63622979 -70.51090459 118.66081442 -61.59765625 133.34765625 C-59.35549223 137.06997744 -57.31412466 140.89337289 -55.26171875 144.72265625 C-53.2510679 148.72382702 -53.2510679 148.72382702 -49.50756836 150.78027344 C-47.93954468 151.06692871 -47.93954468 151.06692871 -46.33984375 151.359375 C-45.16663574 151.58399414 -43.99342773 151.80861328 -42.78466797 152.04003906 C-40.88031982 152.39146973 -40.88031982 152.39146973 -38.9375 152.75 C-36.26971212 153.26939526 -33.60513981 153.80397569 -30.94140625 154.34375 C-29.93134521 154.54825775 -29.93134521 154.54825775 -28.90087891 154.75689697 C1.82001994 161.06340033 31.79117475 172.40842598 59 188 C59 188.66 59 189.32 59 190 C54.77528653 189.39313508 51.67586847 187.90089591 47.9375 185.875 C39.72676996 181.59433473 31.11296574 178.69463811 22.34228516 175.78466797 C20.29588399 175.09912144 18.26182883 174.38875431 16.23046875 173.66015625 C-5.88629727 165.89074237 -28.9693075 161.96158483 -52 158 C-52.30309082 158.61012939 -52.60618164 159.22025879 -52.91845703 159.84887695 C-58.10559566 170.16577954 -64.676794 179.48149841 -71.42285156 188.81445312 C-73.00746039 191.0103383 -74.57847889 193.21549969 -76.1484375 195.421875 C-77.13989602 196.80260708 -78.1320544 198.18283696 -79.125 199.5625 C-79.58616211 200.2119458 -80.04732422 200.8613916 -80.52246094 201.53051758 C-81.63218652 203.05753839 -82.80989255 204.53476019 -84 206 C-84.66 206 -85.32 206 -86 206 C-86.309375 206.61875 -86.61875 207.2375 -86.9375 207.875 C-87.625 209.25 -88.3125 210.625 -89 212 C-89.66 212 -90.32 212 -91 212 C-91.27295898 212.59603027 -91.54591797 213.19206055 -91.82714844 213.80615234 C-100.55165017 230.12554714 -123.32756435 243.42711919 -140.375 248.875 C-147.93730787 250.88258336 -155.20187633 251.14381785 -163 251 C-163 250.01 -163 249.02 -163 248 C-161.87078125 247.97873047 -161.87078125 247.97873047 -160.71875 247.95703125 C-140.72525866 247.05926526 -123.62386683 238.42867069 -109 225 C-107.63685514 223.35762621 -106.3014804 221.69165727 -105 220 C-103.33604556 218.33062551 -101.66917105 216.66415852 -100 215 C-98.08073064 212.87019508 -96.22475562 210.69023262 -94.375 208.5 C-93.89804688 207.94441406 -93.42109375 207.38882813 -92.9296875 206.81640625 C-90.80122106 204.30363337 -88.96672516 201.94347836 -87.2890625 199.09375 C-86.86367187 198.4028125 -86.43828125 197.711875 -86 197 C-85.34 197 -84.68 197 -84 197 C-84 196.01 -84 195.02 -84 194 C-83.34 194 -82.68 194 -82 194 C-82 193.01 -82 192.02 -82 191 C-81.34 191 -80.68 191 -80 191 C-79.71125 190.2575 -79.4225 189.515 -79.125 188.75 C-78.17697356 186.43260203 -77.15154089 184.22082885 -76 182 C-75.34 182 -74.68 182 -74 182 C-73.58814453 180.90558594 -73.58814453 180.90558594 -73.16796875 179.7890625 C-72.05939655 177.14183657 -70.80580462 174.82156483 -69.3125 172.375 C-68.79300781 171.51261719 -68.27351562 170.65023437 -67.73828125 169.76171875 C-66.52903251 167.84050784 -65.27236991 165.948666 -63.98046875 164.08203125 C-63.32691406 163.12683594 -62.67335937 162.17164063 -62 161.1875 C-61.38125 160.31480469 -60.7625 159.44210938 -60.125 158.54296875 C-58.73171407 156.08927856 -58.73171407 156.08927856 -59.5546875 153.6953125 C-60.03164062 152.80585938 -60.50859375 151.91640625 -61 151 C-61.65056799 149.67161419 -62.29880283 148.34208441 -62.9453125 147.01171875 C-63.66982469 145.56928084 -64.39643543 144.12789533 -65.125 142.6875 C-65.49753906 141.94693359 -65.87007812 141.20636719 -66.25390625 140.44335938 C-67.16744806 138.62798783 -68.08347487 136.81386718 -69 135 C-69.66 135 -70.32 135 -71 135 C-71.33 135.66 -71.66 136.32 -72 137 C-73.32 137 -74.64 137 -76 137 C-76.07476562 137.85980469 -76.14953125 138.71960938 -76.2265625 139.60546875 C-78.86483754 163.32407863 -95.50471393 183.60291402 -113 199 C-113.66 199 -114.32 199 -115 199 C-115 199.66 -115 200.32 -115 201 C-117.00672497 202.64075689 -119.00468996 204.14287126 -121.125 205.625 C-121.75591553 206.0686792 -122.38683105 206.5123584 -123.03686523 206.96948242 C-139.76445546 218.55650998 -159.98930197 229.45400541 -181 227 C-193.75355136 224.15695392 -203.32540456 217.52709994 -211 207 C-224.2919874 185.60920063 -224.75835003 160.50554954 -219.54345703 136.32128906 C-212.10218046 104.53707627 -198.00852746 77.16087569 -177.390625 52.0390625 C-174.34761736 48.12418188 -173.78813851 45.87281422 -174 41 C-172.625 38.125 -172.625 38.125 -171 36 C-170.34 36 -169.68 36 -169 36 C-168.79375 35.2575 -168.5875 34.515 -168.375 33.75 C-166.55718769 30.11437538 -164.5624345 28.88599474 -161 27 C-158.125 26.75 -158.125 26.75 -156 27 C-155.505 26.01 -155.505 26.01 -155 25 C-152.890625 24.65625 -152.890625 24.65625 -150.25 24.5 C-143.81770112 24.1148324 -139.60482691 21.85702476 -134.25 18.375 C-93.67206848 -7.09723553 -45.97323137 -10.45307468 0 0 Z M-91 49 C-90 51 -90 51 -90 51 Z M-87 73 C-86 75 -86 75 -86 75 Z M-86 77 C-85 81 -85 81 -85 81 Z M-71 131 C-70 133 -70 133 -70 133 Z " fill="#EC0B0C" transform="translate(225,6)"/>
<path d="M0 0 C9.24115186 4.74127967 17.56394749 10.32759387 25.84228516 16.57836914 C27.13889526 17.46807823 28.43577079 18.35740061 29.73291016 19.24633789 C30.75900391 20.0159082 31.78509766 20.78547852 32.84228516 21.57836914 C32.84228516 22.23836914 32.84228516 22.89836914 32.84228516 23.57836914 C33.77041016 24.04243164 33.77041016 24.04243164 34.71728516 24.51586914 C36.09228516 25.20336914 37.46728516 25.89086914 38.84228516 26.57836914 C38.84228516 27.23836914 38.84228516 27.89836914 38.84228516 28.57836914 C39.43106445 28.84262695 40.01984375 29.10688477 40.62646484 29.37915039 C42.923011 30.62205858 44.45061682 31.92843395 46.29541016 33.76586914 C46.91416016 34.38204102 47.53291016 34.99821289 48.17041016 35.63305664 C48.80462891 36.27500977 49.43884766 36.91696289 50.09228516 37.57836914 C51.06681641 38.54129883 51.06681641 38.54129883 52.06103516 39.52368164 C52.67462891 40.13985352 53.28822266 40.75602539 53.92041016 41.39086914 C54.48147461 41.95418945 55.04253906 42.51750977 55.62060547 43.09790039 C56.84228516 44.57836914 56.84228516 44.57836914 56.84228516 46.57836914 C57.50228516 46.57836914 58.16228516 46.57836914 58.84228516 46.57836914 C60.10400391 47.9609375 60.10400391 47.9609375 61.52978516 49.91821289 C62.05886475 50.64306885 62.58794434 51.3679248 63.13305664 52.11474609 C63.69710205 52.9071167 64.26114746 53.6994873 64.84228516 54.51586914 C65.42244385 55.32693115 66.00260254 56.13799316 66.6003418 56.97363281 C74.46457676 68.12012438 81.35774697 79.61864718 86.58837891 92.23461914 C87.67062873 94.90299431 87.67062873 94.90299431 90.84228516 95.57836914 C90.84228516 96.89836914 90.84228516 98.21836914 90.84228516 99.57836914 C90.18228516 99.57836914 89.52228516 99.57836914 88.84228516 99.57836914 C89.17228516 100.23836914 89.50228516 100.89836914 89.84228516 101.57836914 C91.15398263 105.51346157 91.11407663 108.43354918 90.84228516 112.57836914 C90.18228516 113.23836914 89.52228516 113.89836914 88.84228516 114.57836914 C89.17228516 115.23836914 89.50228516 115.89836914 89.84228516 116.57836914 C88.85228516 116.57836914 87.86228516 116.57836914 86.84228516 116.57836914 C87.04853516 117.30024414 87.25478516 118.02211914 87.46728516 118.76586914 C87.90941546 122.08184645 87.22590034 123.58053623 85.84228516 126.57836914 C84.55839074 130.31333471 84.97349028 131.23439478 85.84228516 135.57836914 C89.47228516 135.57836914 93.10228516 135.57836914 96.84228516 135.57836914 C99.06165241 143.48486499 99.52966591 151.40055994 98.84228516 159.57836914 C96.16412175 162.25653254 94.60616045 162.29956356 90.84228516 162.57836914 C77.92355067 160.57373793 67.68263419 152.64234348 57.84228516 144.57836914 C57.27606445 144.13251465 56.70984375 143.68666016 56.12646484 143.22729492 C54.66122234 142.05604513 53.24695988 140.8216111 51.84228516 139.57836914 C51.84228516 138.91836914 51.84228516 138.25836914 51.84228516 137.57836914 C51.18228516 137.57836914 50.52228516 137.57836914 49.84228516 137.57836914 C48.04070464 135.55538227 46.37005175 133.53110824 44.71728516 131.39086914 C44.22736084 130.76172607 43.73743652 130.13258301 43.23266602 129.484375 C38.61599253 123.45715594 34.64744816 117.15010948 30.84228516 110.57836914 C30.38724609 109.79719727 29.93220703 109.01602539 29.46337891 108.21118164 C28.5774369 106.67390248 27.70701618 105.12767889 26.84228516 103.57836914 C25.52228516 103.90836914 24.20228516 104.23836914 22.84228516 104.57836914 C23.31666016 105.13524414 23.79103516 105.69211914 24.27978516 106.26586914 C25.84228516 108.57836914 25.84228516 108.57836914 26.17822266 110.71508789 C27.11593325 114.75827532 29.04556532 118.08002864 31.02978516 121.70336914 C31.44123779 122.46544678 31.85269043 123.22752441 32.27661133 124.01269531 C33.09625167 125.52905405 33.91853048 127.04399007 34.74365234 128.55737305 C35.62392572 130.17668482 36.48947145 131.80399914 37.35009766 133.43383789 C40.60351576 139.56078396 44.15104318 145.50524194 47.71728516 151.45336914 C48.50643311 152.77087158 48.50643311 152.77087158 49.31152344 154.11499023 C51.51866814 157.78352085 53.72689419 161.44302062 56.08056641 165.01977539 C60.30221696 171.50876533 63.581635 178.10414922 66.65478516 185.20336914 C67.02821045 186.06244873 67.40163574 186.92152832 67.78637695 187.80664062 C77.76954828 211.57814665 79.29061014 240.1484201 70.59228516 264.57836914 C68.16041455 270.39564016 65.06717722 275.86394299 60.84228516 280.57836914 C60.18228516 280.57836914 59.52228516 280.57836914 58.84228516 280.57836914 C59.71034644 277.8295084 60.60385118 275.12321615 61.76025391 272.48071289 C70.74951654 251.85018295 69.21141882 229.83298429 61.32958984 209.20751953 C59.18766735 203.956376 56.4107972 199.27177817 53.16259766 194.61743164 C51.84228516 192.57836914 51.84228516 192.57836914 51.84228516 190.57836914 C51.18228516 190.57836914 50.52228516 190.57836914 49.84228516 190.57836914 C46.84228516 187.11683068 46.84228516 187.11683068 46.84228516 184.57836914 C45.99089966 184.19902222 45.99089966 184.19902222 45.12231445 183.81201172 C42.54931805 182.41985508 40.57820558 180.74829122 38.36181641 178.84008789 C32.82418151 174.34728977 26.9859436 171.3550452 20.52978516 168.39086914 C19.42401123 167.87186035 18.3182373 167.35285156 17.17895508 166.81811523 C10.77256076 163.83938499 4.35867584 161.05472207 -2.27880859 158.63305664 C-18.07022771 152.84786918 -34.95969642 145.18255735 -48.15771484 134.57836914 C-48.15771484 133.91836914 -48.15771484 133.25836914 -48.15771484 132.57836914 C-48.75583984 132.31024414 -49.35396484 132.04211914 -49.97021484 131.76586914 C-52.15585059 130.57938116 -53.41605654 129.32002744 -55.15771484 127.57836914 C-57.25761136 126.40262203 -57.25761136 126.40262203 -59.15771484 125.57836914 C-59.15771484 124.91836914 -59.15771484 124.25836914 -59.15771484 123.57836914 C-60.14771484 122.58836914 -60.14771484 122.58836914 -61.15771484 121.57836914 C-62.14771484 120.58836914 -62.14771484 120.58836914 -63.15771484 119.57836914 C-63.15771484 118.91836914 -63.15771484 118.25836914 -63.15771484 117.57836914 C-64.14771484 117.24836914 -65.13771484 116.91836914 -66.15771484 116.57836914 C-67.47290039 115.1105957 -67.47290039 115.1105957 -68.79443359 113.21899414 C-69.28524414 112.52225586 -69.77605469 111.82551758 -70.28173828 111.10766602 C-70.79768555 110.35549805 -71.31363281 109.60333008 -71.84521484 108.82836914 C-72.38049805 108.05557617 -72.91578125 107.2827832 -73.46728516 106.48657227 C-75.04474051 104.19295408 -76.60565128 101.88923077 -78.15771484 99.57836914 C-78.55748535 98.9834668 -78.95725586 98.38856445 -79.36914062 97.77563477 C-92.17109479 78.47082349 -102.17502102 56.09930075 -100.15771484 32.57836914 C-99.30849296 28.88610008 -98.03240982 25.85757836 -96.15771484 22.57836914 C-95.72587891 21.79461914 -95.29404297 21.01086914 -94.84912109 20.20336914 C-92.55004615 16.27379298 -92.55004615 16.27379298 -91.15771484 14.57836914 C-90.49771484 14.57836914 -89.83771484 14.57836914 -89.15771484 14.57836914 C-88.82771484 13.58836914 -88.49771484 12.59836914 -88.15771484 11.57836914 C-86.07987855 9.99553807 -84.04989488 8.58673191 -81.84521484 7.20336914 C-81.21728027 6.8048877 -80.5893457 6.40640625 -79.94238281 5.99584961 C-74.27481338 2.48844276 -68.41568623 -0.13036203 -62.15771484 -2.42163086 C-61.35978516 -2.71682617 -60.56185547 -3.01202148 -59.73974609 -3.31616211 C-58.67820312 -3.70868164 -58.67820312 -3.70868164 -57.59521484 -4.10913086 C-54.10658075 -5.29580763 -54.10658075 -5.29580763 -51.15771484 -7.42163086 C-34.41929703 -13.00110346 -15.08888523 -7.46640183 0 0 Z M19.84228516 97.57836914 C20.84228516 99.57836914 20.84228516 99.57836914 20.84228516 99.57836914 Z M20.84228516 99.57836914 C21.84228516 101.57836914 21.84228516 101.57836914 21.84228516 101.57836914 Z M25.84228516 100.57836914 C26.84228516 102.57836914 26.84228516 102.57836914 26.84228516 102.57836914 Z " fill="#0A4AB3" transform="translate(261.15771484375,19.421630859375)"/>
<path d="M0 0 C0.85609863 0.53657227 0.85609863 0.53657227 1.72949219 1.08398438 C3.18585102 2.0060325 4.59764936 2.99771936 6 4 C6 4.66 6 5.32 6 6 C6.58265625 6.26683594 7.1653125 6.53367188 7.765625 6.80859375 C21.47522781 14.11878406 32.06067674 30.09384157 36.85546875 44.4765625 C40.43322761 57.00841808 39.15156618 70.55484924 33 82 C26.72158976 93.22869524 17.77993129 101.63745568 5.1875 105.3125 C-20.60493113 110.40794973 -42.75767392 100.32014939 -64.89355469 88.27685547 C-78.76545579 80.76027417 -93.07587174 75.03466191 -108.375 71.125 C-109.12193115 70.93381592 -109.8688623 70.74263184 -110.63842773 70.5456543 C-122.87177698 67.63433655 -135.20298726 66.6356428 -147.75 66.6875 C-148.40964752 66.68766113 -149.06929504 66.68782227 -149.74893188 66.68798828 C-160.44413839 66.70589597 -170.92157117 67.58997011 -181.53442383 68.91918945 C-195.50695425 70.63713209 -209.49545278 71.68566866 -223 67 C-223.80953125 66.75636719 -224.6190625 66.51273437 -225.453125 66.26171875 C-238.13122047 61.94707658 -252.3319131 50.93979423 -259.375 39.5625 C-267.14371818 22.53107938 -269.741438 5.49983825 -271 -13 C-270.01 -12.505 -270.01 -12.505 -269 -12 C-268.22126776 -9.31669396 -267.532181 -6.65062748 -266.875 -3.9375 C-264.15252163 6.58140597 -259.92726027 16.34376288 -253.75390625 25.328125 C-252 28 -252 28 -252 30 C-251.34 30 -250.68 30 -250 30 C-247 33.46153846 -247 33.46153846 -247 36 C-246.34 36 -245.68 36 -245 36 C-243.375 37.375 -243.375 37.375 -242 39 C-242 39.66 -242 40.32 -242 41 C-241.45988281 41.268125 -240.91976562 41.53625 -240.36328125 41.8125 C-238.64616653 42.67531467 -236.93610267 43.55220623 -235.23046875 44.4375 C-217.05914395 53.7680904 -199.80983426 53.07955652 -180.46484375 47.26953125 C-173.40786346 44.68382821 -166.94541566 41.01081261 -160.75 36.78125 C-158 35 -158 35 -156 35 C-156 34.34 -156 33.68 -156 33 C-154.5234375 31.765625 -154.5234375 31.765625 -152.375 30.25 C-141.88949258 22.31546911 -132.93332707 12.43364105 -125 2 C-115.04602615 -10.85499831 -99.94545356 -20.54038283 -84 -24 C-82.64455078 -24.30357422 -82.64455078 -24.30357422 -81.26171875 -24.61328125 C-51.93179264 -30.57662722 -23.63632071 -15.91711724 0 0 Z " fill="#224E01" transform="translate(271,208)"/>
<path d="M0 0 C-0.88300781 0.4125 -1.76601562 0.825 -2.67578125 1.25 C-20.84291496 9.77560376 -20.84291496 9.77560376 -34 24 C-34.66 24 -35.32 24 -36 24 C-36.27328125 24.59425781 -36.5465625 25.18851563 -36.828125 25.80078125 C-37.96098115 27.92677462 -39.1281607 29.42178786 -40.75 31.1875 C-47.07808466 37.89536602 -47.07808466 37.89536602 -50.1875 46.2109375 C-49.86975271 48.88200062 -49.16462354 51.41467186 -48.4375 54 C-47.71277009 57.313051 -47.94361949 60.6171693 -48 64 C-43.05 64 -38.1 64 -33 64 C-34.6026813 68.00670326 -35.90307862 70.49634763 -38.375 73.875 C-41.19511093 77.80784781 -43.6903667 81.75027473 -46 86 C-42.04 84.02 -38.08 82.04 -34 80 C-34.33 83.3 -34.66 86.6 -35 90 C-30.05 90.99 -25.1 91.98 -20 93 C-21.76344923 97.40862307 -23.15317747 99.66711525 -26.125 103.1875 C-29.04334035 106.2091673 -29.04334035 106.2091673 -30 110 C-28.37446717 111.70680947 -26.70884005 113.37660195 -25 115 C-26.70456658 116.02711063 -28.41398578 117.04616649 -30.125 118.0625 C-31.2078125 118.72121094 -32.290625 119.37992187 -33.40625 120.05859375 C-35.83867604 121.4602051 -38.16640251 122.44747101 -40.84375 123.28515625 C-44.86888671 124.64711427 -47.86804304 126.00214617 -51 129 C-53.2832084 135.6851568 -53.14851858 143.00552686 -53 150 C-60.29159599 148.84530458 -67.14195434 147.13864461 -74.15234375 144.8046875 C-77.14835014 143.81871305 -77.14835014 143.81871305 -81 144 C-81.66 145.98 -82.32 147.96 -83 150 C-89.98942918 151.56659619 -89.98942918 151.56659619 -92.8671875 149.953125 C-94.5 148.5625 -94.5 148.5625 -97 146 C-96.33333333 143.33333333 -95.66666667 140.66666667 -95 138 C-96.9490625 137.6596875 -96.9490625 137.6596875 -98.9375 137.3125 C-104.06436664 136.2930366 -109.05044146 134.90668758 -114.0625 133.4375 C-115.20609985 133.10455933 -115.20609985 133.10455933 -116.37280273 132.76489258 C-121.87255074 131.12744926 -121.87255074 131.12744926 -123 130 C-122.4599478 123.27935044 -120.73819268 117.14617663 -118.81640625 110.7109375 C-116.07455731 101.98224497 -116.07455731 101.98224497 -116.9609375 93.13671875 C-117.42757812 92.32847656 -117.89421875 91.52023438 -118.375 90.6875 C-119.84269292 88.07599053 -121.04898182 85.85305454 -122 83 C-117.545 82.505 -117.545 82.505 -113 82 C-112.67 75.07 -112.34 68.14 -112 61 C-108.5879008 61.8530248 -105.32514673 62.86642725 -102 64 C-101.82984375 62.97261719 -101.6596875 61.94523437 -101.484375 60.88671875 C-100.05037959 52.57416795 -98.26641828 44.82613922 -95 37 C-96.65 37.99 -98.3 38.98 -100 40 C-101 39 -101 39 -101.25 36.25 C-100.97252094 32.64277217 -100.18164329 30.85291814 -98 28 C-97.34 28 -96.68 28 -96 28 C-95.690625 26.88625 -95.690625 26.88625 -95.375 25.75 C-93.55718769 22.11437538 -91.5624345 20.88599474 -88 19 C-85.125 18.75 -85.125 18.75 -83 19 C-82.67 18.34 -82.34 17.68 -82 17 C-79.71484375 16.5859375 -79.71484375 16.5859375 -76.9375 16.375 C-76.01839844 16.30023437 -75.09929687 16.22546875 -74.15234375 16.1484375 C-73.08693359 16.07496094 -73.08693359 16.07496094 -72 16 C-72 16.99 -72 17.98 -72 19 C-72.66 19 -73.32 19 -74 19 C-74 19.66 -74 20.32 -74 21 C-76 22.625 -76 22.625 -78 24 C-77.12601563 23.63648437 -76.25203125 23.27296875 -75.3515625 22.8984375 C-62.34934482 17.5576645 -49.07757326 13.20738807 -35.62890625 9.13671875 C-29.86435681 7.33103103 -24.14335223 5.39492348 -18.4206543 3.46118164 C-15.95057933 2.62978377 -13.47662524 1.81164958 -11 1 C-10.32420898 0.7721582 -9.64841797 0.54431641 -8.95214844 0.30957031 C-5.63476255 -0.74443681 -3.29960795 -1.31984318 0 0 Z " fill="#FEF7F7" transform="translate(152,14)"/>
<path d="M0 0 C0.85609863 0.53657227 0.85609863 0.53657227 1.72949219 1.08398438 C3.18585102 2.0060325 4.59764936 2.99771936 6 4 C6 4.66 6 5.32 6 6 C6.57234375 6.25652344 7.1446875 6.51304687 7.734375 6.77734375 C10.22648783 8.12222533 12.13355081 9.68513118 14.25 11.5625 C15.30960937 12.49255859 15.30960937 12.49255859 16.390625 13.44140625 C16.92171875 13.95574219 17.4528125 14.47007812 18 15 C18 15.33 18 15.66 18 16 C13.38155661 16.21594532 9.81500251 15.51477651 5.4375 14.0625 C-13.17345266 7.94653322 -33.63038823 9.87679608 -52 16 C-53.91765594 16.14939774 -55.83946522 16.24810283 -57.76171875 16.31640625 C-58.87998047 16.35830078 -59.99824219 16.40019531 -61.15039062 16.44335938 C-62.31763672 16.48267578 -63.48488281 16.52199219 -64.6875 16.5625 C-65.86634766 16.60568359 -67.04519531 16.64886719 -68.25976562 16.69335938 C-71.17305883 16.79951176 -74.08643757 16.90156242 -77 17 C-77.33 15.35 -77.66 13.7 -78 12 C-76.69804687 12.09539062 -75.39609375 12.19078125 -74.0546875 12.2890625 C-72.32816533 12.40166177 -70.60160038 12.51360643 -68.875 12.625 C-68.0190625 12.68945312 -67.163125 12.75390625 -66.28125 12.8203125 C-60.75518659 13.16037794 -56.03351707 13.1346972 -51.3125 9.8125 C-47.13736674 4.04683978 -46.52310013 -1.34345345 -46.625 -8.25 C-46.60759766 -9.45269531 -46.60759766 -9.45269531 -46.58984375 -10.6796875 C-46.59371094 -11.45054687 -46.59757813 -12.22140625 -46.6015625 -13.015625 C-46.60663818 -14.05638184 -46.60663818 -14.05638184 -46.61181641 -15.11816406 C-47.10794324 -17.52328711 -48.15808646 -18.43794026 -50 -20 C-53.16264213 -18.97679225 -55.0698036 -17.93700651 -57.5625 -15.6875 C-65.90680968 -8.60936666 -77.04338111 -6.89587612 -87.46264648 -4.875 C-98.16131937 -2.75155735 -109.05447762 -0.00662127 -116.37890625 8.625 C-119.47435586 13.28435272 -119.43683947 17.6487165 -119 23 C-118.13117188 22.79503906 -117.26234375 22.59007812 -116.3671875 22.37890625 C-115.21476563 22.10949219 -114.06234375 21.84007812 -112.875 21.5625 C-111.16957031 21.16224609 -111.16957031 21.16224609 -109.4296875 20.75390625 C-104.61776254 19.69615965 -100.06055609 18.86271885 -95.125 18.9375 C-93.95324219 18.95103516 -93.95324219 18.95103516 -92.7578125 18.96484375 C-92.17773438 18.97644531 -91.59765625 18.98804688 -91 19 C-91.33 19.66 -91.66 20.32 -92 21 C-94.67259973 21.74482287 -97.29694119 22.40322078 -100 23 C-101.33427682 23.32953642 -102.66790839 23.66173853 -104 24 C-101.64593858 28.9335117 -99.13615289 33.51978158 -96 38 C-98.87587717 37.65464357 -99.80757317 37.24121752 -101.6484375 34.93359375 C-102.50308594 33.69802734 -102.50308594 33.69802734 -103.375 32.4375 C-105.92772312 29.46877755 -107.29486591 28.1648821 -111.140625 27.265625 C-123.69479493 26.98414137 -135.13415198 31.01767918 -146 37 C-146.72574219 37.33902344 -147.45148438 37.67804688 -148.19921875 38.02734375 C-151.37796172 39.74427867 -151.9045975 42.71379251 -153 46 C-153.5067184 52.20730039 -153.74355093 57.7312987 -150 63 C-146.25478295 64.24840568 -142.77162813 64.10701333 -138.875 64.0625 C-137.76318359 64.05573242 -137.76318359 64.05573242 -136.62890625 64.04882812 C-134.75257198 64.03682233 -132.8762776 64.0188887 -131 64 C-130.67 64 -130.34 64 -130 64 C-129.34 63.67 -128.68 63.34 -128 63 C-113.25120426 61.99615526 -99.14120668 64.49670518 -86.0703125 71.58984375 C-79.51409544 75.13487206 -74.50177184 77.2068664 -67 76 C-64.02019799 75.14939987 -64.02019799 75.14939987 -62 74 C-60.83016655 76.3396669 -60.8338759 77.83391527 -60.8125 80.4375 C-60.79832031 81.21996094 -60.78414062 82.00242187 -60.76953125 82.80859375 C-61 85 -61 85 -63 88 C-67.42278746 86.63247145 -71.42062062 84.8716596 -75.5625 82.8125 C-98.16528274 71.95717832 -122.73517862 66.58411294 -147.75 66.6875 C-148.40964752 66.68766113 -149.06929504 66.68782227 -149.74893188 66.68798828 C-160.44413839 66.70589597 -170.92157117 67.58997011 -181.53442383 68.91918945 C-195.50695425 70.63713209 -209.49545278 71.68566866 -223 67 C-223.80953125 66.75636719 -224.6190625 66.51273437 -225.453125 66.26171875 C-238.13122047 61.94707658 -252.3319131 50.93979423 -259.375 39.5625 C-267.14371818 22.53107938 -269.741438 5.49983825 -271 -13 C-270.01 -12.505 -270.01 -12.505 -269 -12 C-268.22126776 -9.31669396 -267.532181 -6.65062748 -266.875 -3.9375 C-264.15252163 6.58140597 -259.92726027 16.34376288 -253.75390625 25.328125 C-252 28 -252 28 -252 30 C-251.34 30 -250.68 30 -250 30 C-247 33.46153846 -247 33.46153846 -247 36 C-246.34 36 -245.68 36 -245 36 C-243.375 37.375 -243.375 37.375 -242 39 C-242 39.66 -242 40.32 -242 41 C-241.45988281 41.268125 -240.91976562 41.53625 -240.36328125 41.8125 C-238.64616653 42.67531467 -236.93610267 43.55220623 -235.23046875 44.4375 C-217.05914395 53.7680904 -199.80983426 53.07955652 -180.46484375 47.26953125 C-173.40786346 44.68382821 -166.94541566 41.01081261 -160.75 36.78125 C-158 35 -158 35 -156 35 C-156 34.34 -156 33.68 -156 33 C-154.5234375 31.765625 -154.5234375 31.765625 -152.375 30.25 C-141.88949258 22.31546911 -132.93332707 12.43364105 -125 2 C-115.04602615 -10.85499831 -99.94545356 -20.54038283 -84 -24 C-82.64455078 -24.30357422 -82.64455078 -24.30357422 -81.26171875 -24.61328125 C-51.93179264 -30.57662722 -23.63632071 -15.91711724 0 0 Z " fill="#487C08" transform="translate(271,208)"/>
<path d="M0 0 C15.76216471 0.32167683 27.19604783 5.34149695 39.875 14.375 C40.45862305 14.79040039 41.04224609 15.20580078 41.64355469 15.63378906 C45.11855737 18.13426704 48.51338313 20.72469705 51.875 23.375 C52.83019531 24.11556641 52.83019531 24.11556641 53.8046875 24.87109375 C56.97962154 27.40630228 59.39378392 30.17343087 61.875 33.375 C62.64199219 34.12910156 63.40898437 34.88320313 64.19921875 35.66015625 C70.89075942 42.44938364 76.37008386 50.38879123 81.4375 58.4375 C91.18851164 73.92226058 104.11699174 93.39321898 121.875 100.375 C124.93313238 100.99872867 127.7422889 101.22582328 130.875 101.375 C130.875 103.025 130.875 104.675 130.875 106.375 C130.215 106.375 129.555 106.375 128.875 106.375 C129.205 107.035 129.535 107.695 129.875 108.375 C131.18669748 112.31009243 131.14679147 115.23018004 130.875 119.375 C130.215 120.035 129.555 120.695 128.875 121.375 C129.205 122.035 129.535 122.695 129.875 123.375 C128.885 123.375 127.895 123.375 126.875 123.375 C127.08125 124.096875 127.2875 124.81875 127.5 125.5625 C127.94213031 128.87847731 127.25861519 130.37716709 125.875 133.375 C124.59110558 137.10996557 125.00620513 138.03102564 125.875 142.375 C129.505 142.375 133.135 142.375 136.875 142.375 C139.09436726 150.28149585 139.56238075 158.1971908 138.875 166.375 C136.1968366 169.0531634 134.63887529 169.09619442 130.875 169.375 C117.95626552 167.37036879 107.71534904 159.43897434 97.875 151.375 C97.3087793 150.92914551 96.74255859 150.48329102 96.15917969 150.02392578 C94.69393719 148.85267599 93.27967473 147.61824196 91.875 146.375 C91.875 145.715 91.875 145.055 91.875 144.375 C91.215 144.375 90.555 144.375 89.875 144.375 C88.07341949 142.35201313 86.40276659 140.3277391 84.75 138.1875 C84.01511353 137.2437854 84.01511353 137.2437854 83.26538086 136.28100586 C78.64870738 130.2537868 74.68016301 123.94674034 70.875 117.375 C70.41996094 116.59382813 69.96492188 115.81265625 69.49609375 115.0078125 C68.61015174 113.47053334 67.73973102 111.92430975 66.875 110.375 C65.555 110.375 64.235 110.375 62.875 110.375 C61.25 108 61.25 108 59.875 105.375 C59.215 104.715 58.555 104.055 57.875 103.375 C57.05859375 101.4921875 57.05859375 101.4921875 56.3125 99.25 C56.06371094 98.52554688 55.81492187 97.80109375 55.55859375 97.0546875 C53.90975873 90.59125422 53.71761624 84.04638619 53.62890625 77.4140625 C53.59597123 75.70832814 53.56275952 74.0025991 53.52929688 72.296875 C53.48200981 69.64879925 53.43751107 67.00074561 53.39819336 64.35253906 C53.14367574 41.6642007 53.14367574 41.6642007 42.1015625 22.4140625 C27.35647658 8.91066802 11.29842808 4.42688805 -8.125 2.375 C-5.39057472 -0.35942528 -3.82869544 0.04360701 0 0 Z M65.875 107.375 C66.875 109.375 66.875 109.375 66.875 109.375 Z " fill="#FBF7F9" transform="translate(221.125,12.625)"/>
<path d="M0 0 C2 1 2 1 3.625 4.0625 C6.38007009 9.10302596 10.80197685 14.40098843 16 17 C16 17.66 16 18.32 16 19 C16.68835938 19.2578125 17.37671875 19.515625 18.0859375 19.78125 C21.38614284 21.16149674 24.46808362 22.81821159 27.625 24.5 C43.64181428 32.68874833 60.47563479 30.14764598 77.640625 27.421875 C87.62581164 25.98367939 97.55354313 25.78400668 107.625 25.75 C108.32156708 25.74482361 109.01813416 25.73964722 109.73580933 25.73431396 C122.87481834 25.6573861 135.71755256 26.82472599 148.5 30.0625 C149.32330811 30.27092529 150.14661621 30.47935059 150.99487305 30.6940918 C167.14366956 35.00275321 182.55840504 41.62706896 197 50 C197 50.66 197 51.32 197 52 C196.37996094 51.82984375 195.75992188 51.6596875 195.12109375 51.484375 C193.20932341 50.96121223 191.29643786 50.4421175 189.3828125 49.92578125 C187.08081034 49.29578759 184.78400089 48.64657487 182.4921875 47.98046875 C155.98390845 40.46697564 127.20907689 40.04510905 102.1875 52.75 C94.45977512 57.23184941 87.54492625 62.64330865 84 71 C83.49599283 75.03205738 83.64742617 77.27952304 85.4375 80.9375 C96.46758808 94.11980039 111.91654238 100.89703328 128 106 C128.99 106.33 129.98 106.66 131 107 C131 107.66 131 108.32 131 109 C109.77331838 106.28822129 89.71485298 96.62184622 72 85 C70.93652344 84.30519531 69.87304688 83.61039062 68.77734375 82.89453125 C65.83587934 80.95177966 62.91395594 78.98369887 60 77 C59.23945312 76.49082031 58.47890625 75.98164063 57.6953125 75.45703125 C56.09166874 74.3589539 54.53791429 73.18838832 53 72 C53 71.34 53 70.68 53 70 C52.11441406 69.59007812 52.11441406 69.59007812 51.2109375 69.171875 C44.45941026 65.59332699 39.12199009 59.21775667 33.75 53.875 C33.14752441 53.27719727 32.54504883 52.67939453 31.92431641 52.06347656 C23 43.10683469 23 43.10683469 23 40 C22.34 40 21.68 40 21 40 C-1.3950426 11.16034082 -1.3950426 11.16034082 0 0 Z " fill="#477C07" transform="translate(13,251)"/>
<path d="M0 0 C0.65003625 2.20709983 1.29484745 4.41573892 1.9375 6.625 C2.47697266 8.46964844 2.47697266 8.46964844 3.02734375 10.3515625 C3.88485972 13.56810836 4.51903985 16.70921999 5 20 C8.3 20.33 11.6 20.66 15 21 C13.72015012 24.41958126 12.2427058 27.42442382 10.28515625 30.50390625 C9.50301758 31.73850586 9.50301758 31.73850586 8.70507812 32.99804688 C8.16302734 33.84431641 7.62097656 34.69058594 7.0625 35.5625 C6.52431641 36.41263672 5.98613281 37.26277344 5.43164062 38.13867188 C3.06489035 41.85951848 0.68213942 45.49662565 -2 49 C-1.0925 48.46375 -0.185 47.9275 0.75 47.375 C6.04107459 44.34217786 11.53122114 41.69397973 17 39 C17 41.31 17 43.62 17 46 C17.92232422 46.09087891 17.92232422 46.09087891 18.86328125 46.18359375 C19.67152344 46.26738281 20.47976562 46.35117188 21.3125 46.4375 C22.11300781 46.51871094 22.91351563 46.59992188 23.73828125 46.68359375 C26 47 26 47 29 48 C27.55797524 52.15151338 25.4989562 55.29978445 22.875 58.8125 C21.78832031 60.27623047 21.78832031 60.27623047 20.6796875 61.76953125 C20.12539062 62.50558594 19.57109375 63.24164063 19 64 C20.65 64.66 22.3 65.32 24 66 C24 66.66 24 67.32 24 68 C18.81741183 70.64417764 13.58180856 73.15948481 8.3125 75.625 C7.67111084 75.92607666 7.02972168 76.22715332 6.36889648 76.53735352 C2.94968399 78.13132886 -0.48067688 79.64072032 -4 81 C-4.33 83.64 -4.66 86.28 -5 89 C-12.18216433 86.72564796 -19.0758202 83.96415819 -26 81 C-26.10957031 81.70125 -26.21914062 82.4025 -26.33203125 83.125 C-27.32906005 89.09096094 -28.68104379 94.41342368 -31 100 C-35.875 99.125 -35.875 99.125 -37 98 C-36.58923028 92.77735645 -35.21176359 88.75619294 -32.9375 84.0625 C-32.11572266 82.34740234 -32.11572266 82.34740234 -31.27734375 80.59765625 C-30.85582031 79.74042969 -30.43429688 78.88320312 -30 78 C-30.69867188 77.93941406 -31.39734375 77.87882812 -32.1171875 77.81640625 C-33.48230469 77.69072266 -33.48230469 77.69072266 -34.875 77.5625 C-36.23238281 77.44068359 -36.23238281 77.44068359 -37.6171875 77.31640625 C-40 77 -40 77 -42 76 C-44.29924497 75.72975292 -46.59801487 75.55502159 -48.90625 75.37890625 C-51 75 -51 75 -53 73 C-51.9790625 71.9171875 -51.9790625 71.9171875 -50.9375 70.8125 C-48.71211064 68.23527231 -48.71211064 68.23527231 -49.25415039 65.60351562 C-49.97577399 63.08456504 -50.85088137 60.8848837 -51.99609375 58.53125 C-52.38990234 57.71269531 -52.78371094 56.89414063 -53.18945312 56.05078125 C-53.60130859 55.20902344 -54.01316406 54.36726563 -54.4375 53.5 C-59.40870419 43.2434555 -59.40870419 43.2434555 -61 39 C-58.69 39 -56.38 39 -54 39 C-54 32.73 -54 26.46 -54 20 C-49 21 -49 21 -46.0625 22.625 C-42.44368022 24.24977623 -40.79582981 23.79189774 -37 23 C-36.01836578 24.93625098 -35.03977546 26.87404539 -34.0625 28.8125 C-33.51722656 29.89144531 -32.97195312 30.97039062 -32.41015625 32.08203125 C-31 35 -31 35 -30 38 C-28.68 27.77 -27.36 17.54 -26 7 C-21.9915966 9.0042017 -20.58590343 10.49055963 -18 14 C-13.68452961 12.35303304 -10.99076095 9.14237949 -7.875 5.875 C-2.26887872 0 -2.26887872 0 0 0 Z " fill="#ED0A0B" transform="translate(97,61)"/>
<path d="M0 0 C-1.27870421 2.79556142 -2.61343513 4.87611507 -4.765625 7.06640625 C-5.31782715 7.6284375 -5.8700293 8.19046875 -6.43896484 8.76953125 C-29.10731037 31.21174338 -58.58995942 49.90253891 -90 57 C-91.2375 57.28359375 -92.475 57.5671875 -93.75 57.859375 C-97.16072892 58.61257764 -100.57128764 59.33377743 -104 60 C-104.8971875 60.18691406 -105.794375 60.37382812 -106.71875 60.56640625 C-124.22004915 62.87907792 -144.14314755 62.25483039 -158.91015625 51.625 C-161.83182234 49.08321957 -163.35141193 46.89941273 -164.0625 43.0625 C-164.24557544 38.87564425 -163.48777089 35.40716448 -161 32 C-149.06566723 20.09127739 -132.53257488 16.76643729 -116.25 16.625 C-102.53187937 16.71690051 -89.28800988 19.4146492 -75.9453125 22.37109375 C-53.72173375 27.11644677 -32.20084523 20.3647131 -13.078125 9.03515625 C-9.56414164 6.71182461 -6.46778977 4.18602134 -3.453125 1.25 C-2 0 -2 0 0 0 Z " fill="#477B07" transform="translate(318,302)"/>
<path d="M0 0 C2.875 0.5625 2.875 0.5625 6 2 C7.95011501 7.07158622 8.282122 11.7686897 8.1875 17.1875 C8.18613037 17.93725098 8.18476074 18.68700195 8.18334961 19.45947266 C8.14742092 23.70451537 7.76048085 27.6811998 7.0625 31.875 C5.41928418 49.63622979 20.48909541 72.66081442 29.40234375 87.34765625 C31.64450777 91.06997744 33.68587534 94.89337289 35.73828125 98.72265625 C37.7489321 102.72382702 37.7489321 102.72382702 41.49243164 104.78027344 C43.06045532 105.06692871 43.06045532 105.06692871 44.66015625 105.359375 C45.83336426 105.58399414 47.00657227 105.80861328 48.21533203 106.04003906 C50.11968018 106.39146973 50.11968018 106.39146973 52.0625 106.75 C54.73028788 107.26939526 57.39486019 107.80397569 60.05859375 108.34375 C61.06865479 108.54825775 61.06865479 108.54825775 62.09912109 108.75689697 C92.82001994 115.06340033 122.79117475 126.40842598 150 142 C150 142.66 150 143.32 150 144 C145.77528653 143.39313508 142.67586847 141.90089591 138.9375 139.875 C130.72676996 135.59433473 122.11296574 132.69463811 113.34228516 129.78466797 C111.29588399 129.09912144 109.26182883 128.38875431 107.23046875 127.66015625 C85.11370273 119.89074237 62.0306925 115.96158483 39 112 C38.69690918 112.61012939 38.39381836 113.22025879 38.08154297 113.84887695 C32.89440434 124.16577954 26.323206 133.48149841 19.57714844 142.81445312 C17.99253961 145.0103383 16.42152111 147.21549969 14.8515625 149.421875 C13.86010398 150.80260708 12.8679456 152.18283696 11.875 153.5625 C11.41383789 154.2119458 10.95267578 154.8613916 10.47753906 155.53051758 C9.36781348 157.05753839 8.19010745 158.53476019 7 160 C6.34 160 5.68 160 5 160 C4.690625 160.61875 4.38125 161.2375 4.0625 161.875 C3.375 163.25 2.6875 164.625 2 166 C1.34 166 0.68 166 0 166 C-0.27295898 166.59603027 -0.54591797 167.19206055 -0.82714844 167.80615234 C-9.55165017 184.12554714 -32.32756435 197.42711919 -49.375 202.875 C-56.93730787 204.88258336 -64.20187633 205.14381785 -72 205 C-72 204.01 -72 203.02 -72 202 C-70.87078125 201.97873047 -70.87078125 201.97873047 -69.71875 201.95703125 C-49.72525866 201.05926526 -32.62386683 192.42867069 -18 179 C-16.63685514 177.35762621 -15.3014804 175.69165727 -14 174 C-12.33604556 172.33062551 -10.66917105 170.66415852 -9 169 C-7.08073064 166.87019508 -5.22475562 164.69023262 -3.375 162.5 C-2.89804688 161.94441406 -2.42109375 161.38882813 -1.9296875 160.81640625 C0.19877894 158.30363337 2.03327484 155.94347836 3.7109375 153.09375 C4.13632813 152.4028125 4.56171875 151.711875 5 151 C5.66 151 6.32 151 7 151 C7 150.01 7 149.02 7 148 C7.66 148 8.32 148 9 148 C9 147.01 9 146.02 9 145 C9.66 145 10.32 145 11 145 C11.28875 144.2575 11.5775 143.515 11.875 142.75 C12.82302644 140.43260203 13.84845911 138.22082885 15 136 C15.66 136 16.32 136 17 136 C17.41185547 134.90558594 17.41185547 134.90558594 17.83203125 133.7890625 C18.94060345 131.14183657 20.19419538 128.82156483 21.6875 126.375 C22.20699219 125.51261719 22.72648437 124.65023437 23.26171875 123.76171875 C24.47096749 121.84050784 25.72763009 119.948666 27.01953125 118.08203125 C27.67308594 117.12683594 28.32664062 116.17164063 29 115.1875 C29.61875 114.31480469 30.2375 113.44210938 30.875 112.54296875 C32.26828593 110.08927856 32.26828593 110.08927856 31.4453125 107.6953125 C30.96835938 106.80585938 30.49140625 105.91640625 30 105 C29.34943201 103.67161419 28.70119717 102.34208441 28.0546875 101.01171875 C27.33017531 99.56928084 26.60356457 98.12789533 25.875 96.6875 C25.50246094 95.94693359 25.12992187 95.20636719 24.74609375 94.44335938 C23.83255194 92.62798783 22.91652513 90.81386718 22 89 C21.34 89 20.68 89 20 89 C19.67 89.66 19.34 90.32 19 91 C17.68 91 16.36 91 15 91 C14.505 92.485 14.505 92.485 14 94 C14.0825 93.21625 14.165 92.4325 14.25 91.625 C13.9015399 86.57232861 12.02045047 82.60662706 10 78 C-1.24060368 51.97723258 -9.33027128 27.99081385 0 0 Z M0 3 C1 5 1 5 1 5 Z M4 27 C5 29 5 29 5 29 Z M5 31 C6 35 6 35 6 35 Z M20 85 C21 87 21 87 21 87 Z " fill="#F8CF5D" transform="translate(134,52)"/>
<path d="M0 0 C4.82657101 3.12227971 9.4133054 6.53669633 14 10 C15.2966101 10.88970909 16.59348564 11.77903147 17.890625 12.66796875 C18.91671875 13.43753906 19.9428125 14.20710938 21 15 C21 15.66 21 16.32 21 17 C21.61875 17.309375 22.2375 17.61875 22.875 17.9375 C24.25 18.625 25.625 19.3125 27 20 C27 20.66 27 21.32 27 22 C27.5887793 22.26425781 28.17755859 22.52851562 28.78417969 22.80078125 C31.08072584 24.04368944 32.60833166 25.35006481 34.453125 27.1875 C35.071875 27.80367187 35.690625 28.41984375 36.328125 29.0546875 C36.96234375 29.69664063 37.5965625 30.33859375 38.25 31 C39.22453125 31.96292969 39.22453125 31.96292969 40.21875 32.9453125 C40.83234375 33.56148437 41.4459375 34.17765625 42.078125 34.8125 C42.63918945 35.37582031 43.20025391 35.93914063 43.77832031 36.51953125 C45 38 45 38 45 40 C45.66 40 46.32 40 47 40 C48.26171875 41.38256836 48.26171875 41.38256836 49.6875 43.33984375 C50.21666016 44.06486084 50.74582031 44.78987793 51.29101562 45.53686523 C51.85498047 46.32907471 52.41894531 47.12128418 53 47.9375 C53.86915039 49.15191772 53.86915039 49.15191772 54.75585938 50.39086914 C75 79.07285221 75 79.07285221 75 88 C62.38955198 87.46338519 52.53282508 75.92255696 44.4375 67.25 C38.51298647 60.50292659 33.54043539 53.07841806 28.78515625 45.48046875 C28.04473986 44.29918506 27.30385513 43.11819478 26.5625 41.9375 C26.200354 41.36 25.83820801 40.7825 25.46508789 40.1875 C22.03921685 34.83950575 18.05750696 30.09439148 13.87109375 25.328125 C12 23 12 23 12 21 C10.515 20.505 10.515 20.505 9 20 C9 19.34 9 18.68 9 18 C7.515 17.505 7.515 17.505 6 17 C6 16.34 6 15.68 6 15 C5.40832031 14.731875 4.81664062 14.46375 4.20703125 14.1875 C1.98085245 12.9896976 0.50763525 11.74063509 -1.3125 10 C-5.1621859 6.54830795 -9.26444185 3.66624573 -13.5625 0.8125 C-14.18745361 0.39677734 -14.81240723 -0.01894531 -15.45629883 -0.44726562 C-17.29206269 -1.65199319 -19.14034655 -2.83252464 -21 -4 C-21.57983643 -4.36657715 -22.15967285 -4.7331543 -22.75708008 -5.11083984 C-33.46760637 -11.58809354 -45.78255289 -12.6872314 -58 -12 C-55.36 -11.67 -52.72 -11.34 -50 -11 C-50 -10.67 -50 -10.34 -50 -10 C-60.395 -9.505 -60.395 -9.505 -71 -9 C-69.68 -9.66 -68.36 -10.32 -67 -11 C-66.67 -11.66 -66.34 -12.32 -66 -13 C-44.84224161 -23.00897325 -18.13534804 -10.95397167 0 0 Z " fill="#0D49B2" transform="translate(273,26)"/>
<path d="M0 0 C3.11531178 2.96129637 5.65269269 6.09503135 8.1875 9.5625 C11.30984341 13.76506107 14.46869395 17.91890984 17.75 22 C18.79414063 23.299375 18.79414063 23.299375 19.859375 24.625 C22.06330631 27.07023766 24.3857705 29.00779183 27 31 C28.8125 32.625 28.8125 32.625 30 34 C30 34.66 30 35.32 30 36 C30.85078125 36.37898438 30.85078125 36.37898438 31.71875 36.765625 C34.2978021 38.16113949 36.27732114 39.83849618 38.5 41.75 C45.28922543 47.28196146 52.87952152 50.83464045 61 54 C59.71661609 82.32295526 51.87634072 113.18548892 36 137 C35.34 137 34.68 137 34 137 C34.27714844 135.85402344 34.55429687 134.70804688 34.83984375 133.52734375 C35.20589539 131.9974356 35.57177147 130.46748543 35.9375 128.9375 C36.11990234 128.18533203 36.30230469 127.43316406 36.49023438 126.65820312 C40.70313174 108.96403418 40.63056374 89.60734518 36 72 C35.83371094 71.35305176 35.66742188 70.70610352 35.49609375 70.03955078 C31.35331108 54.29314071 23.71246307 40.6638082 15 27 C13.70431119 24.93167605 12.41336613 22.86043565 11.12255859 20.7890625 C9.88220412 18.79931756 8.63904297 16.81136548 7.39453125 14.82421875 C7.0073291 14.20208496 6.62012695 13.57995117 6.22119141 12.93896484 C5.35660822 11.56621001 4.47713553 10.20278079 3.58740234 8.84619141 C3.12930176 8.14026855 2.67120117 7.4343457 2.19921875 6.70703125 C1.77858154 6.06870361 1.35794434 5.43037598 0.92456055 4.77270508 C0 3 0 3 0 0 Z " fill="#0E4CB3" transform="translate(299,146)"/>
<path d="M0 0 C2.86625166 2.59030818 4.78437758 5.57894976 6.875 8.8125 C9.11439059 12.22942992 11.32000103 15.53917262 14 18.625 C16 21 16 21 16 23 C16.66 23 17.32 23 18 23 C18.433125 23.7425 18.86625 24.485 19.3125 25.25 C21.16606821 28.27062968 23.23613095 29.83372426 26 32 C26 32.66 26 33.32 26 34 C26.56203125 34.24492187 27.1240625 34.48984375 27.703125 34.7421875 C30.41728685 36.22851423 32.43962849 38.06575583 34.75 40.125 C47.92840101 50.88038812 59.01184363 54.32950789 76 53 C77.4582723 58.74755271 78.27409561 64.00395726 78.25 69.9375 C78.25773437 71.86916016 78.25773437 71.86916016 78.265625 73.83984375 C78 77 78 77 76 79 C67.7157888 81.36691748 60.49461065 77.65731183 53.23046875 73.91015625 C47.40960893 70.46831774 42.22578145 66.2824261 37 62 C36.4337793 61.55414551 35.86755859 61.10829102 35.28417969 60.64892578 C33.81893719 59.47767599 32.40467473 58.24324196 31 57 C31 56.34 31 55.68 31 55 C30.34 55 29.68 55 29 55 C27.19840554 52.97699746 25.52764471 50.95286077 23.875 48.8125 C23.38507568 48.18263184 22.89515137 47.55276367 22.39038086 46.90380859 C17.77587822 40.87415165 13.76427853 34.59866402 10 28 C9.38705078 26.94425781 9.38705078 26.94425781 8.76171875 25.8671875 C6.02858666 20.82302867 4.50653518 15.45254417 2.9296875 9.953125 C2.10974277 7.0675136 2.10974277 7.0675136 0.8828125 4.796875 C0 3 0 3 0 0 Z " fill="#EA0D0F" transform="translate(282,102)"/>
<path d="M0 0 C16.68359438 6.45816557 29.02629066 19.08291314 39.3125 33.25 C39.6425 31.6 39.9725 29.95 40.3125 28.25 C40.6425 28.25 40.9725 28.25 41.3125 28.25 C42.16776908 43.05565802 39.41362721 54.14643907 30.3125 66.25 C29.6525 65.92 28.9925 65.59 28.3125 65.25 C28.3125 64.59 28.3125 63.93 28.3125 63.25 C28.9725 62.92 29.6325 62.59 30.3125 62.25 C23.57102762 40.96931529 10.49179346 24.98999535 -7.6875 12.25 C-8.55117188 11.64414063 -9.41484375 11.03828125 -10.3046875 10.4140625 C-18.17568765 5.3301706 -27.45983686 1.86008006 -36.6875 0.25 C-36.6875 -1.07 -36.6875 -2.39 -36.6875 -3.75 C-26.68200235 -8.75274883 -9.72956523 -3.20178601 0 0 Z " fill="#457B06" transform="translate(267.6875,232.75)"/>
<path d="M0 0 C6.59530289 1.0397301 12.73079243 2.85031844 19.03393555 5.03735352 C23.76390589 6.65190216 28.51687561 7.95589597 33.375 9.125 C39.03161824 10.48844515 44.51675254 12.05741844 50 14 C52.18643241 14.73236165 54.37398304 15.46139135 56.5625 16.1875 C58.375 16.79166667 60.1875 17.39583333 62 18 C58.66380014 24.24430328 55.01229308 30.16769769 51 36 C42.2549435 35.39689266 33.72581948 33.3200241 25.58984375 30.0234375 C22.06304676 28.62974095 18.45460865 27.61040636 14.8125 26.5625 C13.29941977 26.12260008 11.78639872 25.68249655 10.2734375 25.2421875 C9.54350586 25.03045898 8.81357422 24.81873047 8.06152344 24.60058594 C4.0330833 23.42697595 0.01647011 22.21382266 -4 21 C-3.21910787 13.84182216 -1.75956058 6.97540089 0 0 Z " fill="#FEFAFA" transform="translate(25,158)"/>
<path d="M0 0 C5.27559019 3.81883206 9.23880408 8.96085929 13.27392578 14.01269531 C15.51672203 16.59492465 18.02166866 18.68686812 20.71264648 20.78662109 C21.13747314 21.18703613 21.5622998 21.58745117 22 22 C22 22.66 22 23.32 22 24 C22.66 24 23.32 24 24 24 C23.67 25.98 23.34 27.96 23 30 C20.37778024 29.55195885 18.02487291 29.00986203 15.546875 28.02734375 C7.79978871 25.00857689 0.5696232 24.56354426 -7.6875 24.5 C-9.27256348 24.47280884 -9.27256348 24.47280884 -10.88964844 24.44506836 C-18.09820369 24.49974695 -23.51034148 25.95402117 -30 29 C-32.97556744 30.29598762 -34.72711035 31 -38 31 C-41.55229022 26.44234463 -41.56738763 22.39372569 -41.41015625 16.80859375 C-41 14 -41 14 -38.9375 11.0625 C-37.968125 10.381875 -36.99875 9.70125 -36 9 C-35.01 8.154375 -34.02 7.30875 -33 6.4375 C-24.61834757 0.74158136 -9.95233685 -3.88186386 0 0 Z " fill="#457B05" transform="translate(162,240)"/>
<path d="M0 0 C9.31343742 1.13578505 15.61095323 5.55413639 23 11 C23.75925781 11.5259375 24.51851562 12.051875 25.30078125 12.59375 C26.14189453 13.28984375 26.14189453 13.28984375 27 14 C27 14.66 27 15.32 27 16 C27.99 16.33 28.98 16.66 30 17 C35.78823695 22.7720234 38.93992098 30.56708618 42 38 C42.33257812 38.80050781 42.66515625 39.60101563 43.0078125 40.42578125 C45.52097999 47.48948987 45.53320242 54.80039188 45.7890625 62.21875 C45.73848168 65.8075476 45.73848168 65.8075476 47 68 C37.80685498 69.39569705 29.28157192 70.4551617 20 69 C21.485 68.505 21.485 68.505 23 68 C22.88869202 64.83269988 22.7584174 61.66643974 22.625 58.5 C22.57859375 57.1696875 22.57859375 57.1696875 22.53125 55.8125 C22.18147276 47.88421595 20.65533789 41.11114687 17.5625 33.75 C17.15128906 32.75484375 16.74007812 31.7596875 16.31640625 30.734375 C15.09682985 28.20113026 13.6899733 26.22702021 12 24 C12 23.34 12 22.68 12 22 C11.34 22 10.68 22 10 22 C9.484375 21.29875 8.96875 20.5975 8.4375 19.875 C5.16974088 16.02072002 1.26331767 13.65090907 -3 11 C-2.34 9.68 -1.68 8.36 -1 7 C12.35347056 11.05303285 21.72236503 20.11899011 28.55078125 32.0546875 C30.34282489 35.69673845 31.8646936 39.3971411 33.3125 43.1875 C33.56725098 43.85273682 33.82200195 44.51797363 34.08447266 45.20336914 C36.27381566 51.20801916 37.15022432 57.03362484 37.0625 63.4375 C37.05347656 64.30246094 37.04445313 65.16742188 37.03515625 66.05859375 C37.02355469 66.69925781 37.01195312 67.33992188 37 68 C38.32 68 39.64 68 41 68 C39.13049308 49.05894309 34.96870672 29.02503581 20.16796875 15.671875 C13.91844789 10.85242468 7.39096871 6.79214374 0 4 C0 2.68 0 1.36 0 0 Z " fill="#457C05" transform="translate(229,245)"/>
<path d="M0 0 C4.5065262 0.87191485 6.67668084 2.90327079 10 6 C10 6.66 10 7.32 10 8 C10.66 8 11.32 8 12 8 C22.52958383 21.23491771 25.71870081 35.45478527 24 52 C23.67 52.66 23.34 53.32 23 54 C15.92207746 53.08671967 9.91800371 50.87453061 3.4375 48 C2.62748535 47.64357422 1.8174707 47.28714844 0.98291016 46.91992188 C-4.86995268 44.26009463 -4.86995268 44.26009463 -6 42 C-5.34 42 -4.68 42 -4 42 C-4.32511448 33.16585477 -4.88227195 24.97382241 -7.4765625 16.453125 C-8.3101753 12.54634264 -7.4858994 10.7690494 -5.37109375 7.421875 C-4.73300781 6.54015625 -4.09492188 5.6584375 -3.4375 4.75 C-2.79683594 3.85796875 -2.15617188 2.9659375 -1.49609375 2.046875 C-0.75552734 1.03367187 -0.75552734 1.03367187 0 0 Z " fill="#457B06" transform="translate(224,259)"/>
<path d="M0 0 C6.27875672 5.86799693 10.85587606 13.54057691 15 21 C16.44935274 23.24899563 17.93784383 25.46785176 19.4375 27.68359375 C20.45169434 29.18713686 21.45257938 30.69977627 22.4375 32.22265625 C26.26759574 38.12391789 30.51977308 43.5798039 35 49 C35.83144531 50.05380859 35.83144531 50.05380859 36.6796875 51.12890625 C43.3971784 59.34095853 53.09034715 67.17945046 63.625 69.3125 C68.70637992 70.63926676 68.70637992 70.63926676 71.1875 73.6875 C72.17115531 77.69778705 72.27940932 80.87871253 72 85 C70.46790284 86.53209716 69.06809947 86.20614547 66.9375 86.25 C55.25878781 86.06550218 45.90750389 78.43643218 37.671875 70.7890625 C23.45534402 55.94899946 14.95136881 37.80270566 6.93017578 19.13842773 C5.61434808 16.11340546 4.24200854 13.11421302 2.86743164 10.11547852 C1.51448506 6.81593388 0.75929495 3.48010184 0 0 Z " fill="#EB0B0C" transform="translate(280,47)"/>
<path d="M0 0 C0.99 0.33 1.98 0.66 3 1 C3.50655649 10.10394586 3.18479045 17.18340447 -2.2421875 24.7265625 C-4.89235199 26.64645944 -7.08638468 26.32442019 -10.3125 26.25 C-11.42238281 26.23453125 -12.53226563 26.2190625 -13.67578125 26.203125 C-16.85095995 26.00910703 -19.86789733 25.53558527 -23 25 C-24.45720928 24.93907988 -25.91673459 24.91235749 -27.375 24.9375 C-29.169375 24.9684375 -29.169375 24.9684375 -31 25 C-30.505 28.96 -30.505 28.96 -30 33 C-30.67466309 32.98952637 -31.34932617 32.97905273 -32.04443359 32.96826172 C-35.15458321 32.92622548 -38.26467274 32.90052437 -41.375 32.875 C-42.43589844 32.85824219 -43.49679688 32.84148437 -44.58984375 32.82421875 C-51.31269261 32.78297428 -57.47111548 33.37829164 -64 35 C-64.45677186 31.16311636 -64.20757932 29.34357956 -62.1875 26 C-55.30112639 18.63003274 -45.55203032 15.94318264 -36 14 C-16.30304744 10.61026229 -16.30304744 10.61026229 0 0 Z " fill="#447A05" transform="translate(219,192)"/>
<path d="M0 0 C15.74743154 1.74971462 28.75328592 11.45914664 40 22 C40.76957031 22.70125 41.53914063 23.4025 42.33203125 24.125 C53.78719986 34.98879279 62.05436853 49.48814252 65 65 C55.27586207 74.20689655 55.27586207 74.20689655 49 76 C46.765625 75.59375 46.765625 75.59375 45 75 C45.99 75 46.98 75 48 75 C45.77565496 52.72728195 40.43314992 31.79071223 22.546875 16.73046875 C16.76249394 12.80028346 10.3124733 9.97178126 4 7 C2.66415573 6.33837902 1.32919706 5.67487583 0 5 C0 3.35 0 1.7 0 0 Z " fill="#457C06" transform="translate(231,236)"/>
<path d="M0 0 C5.98827121 5.92946658 5.98827121 5.92946658 8 9 C8 9.66 8 10.32 8 11 C8.66 11 9.32 11 10 11 C13 14.46153846 13 14.46153846 13 17 C14.093125 16.71125 15.18625 16.4225 16.3125 16.125 C21.49387986 14.82267831 26.73780125 13.90927699 32 13 C29.33333333 17 26.66666667 21 24 25 C24.2789048 28.87185491 26.60743506 31.47658007 28.875 34.5 C29.57367188 35.4384375 30.27234375 36.376875 30.9921875 37.34375 C31.65476562 38.2203125 32.31734375 39.096875 33 40 C34 41.33333333 35 42.66666667 36 44 C31.51849593 42.53728686 27.07222969 41.04657389 22.6875 39.3125 C19.02428443 37.77645022 19.02428443 37.77645022 15 38 C13.27123338 40.14768276 11.82381142 42.17707236 10.375 44.5 C8.96547342 46.71562838 7.52419206 48.85789225 6 51 C5.34 51 4.68 51 4 51 C3.505 41.1 3.505 41.1 3 31 C1.35 30.67 -0.3 30.34 -2 30 C-4.42907794 29.22539404 -6.84543181 28.41013544 -9.25 27.5625 C-11.11398438 26.91474609 -11.11398438 26.91474609 -13.015625 26.25390625 C-16 25 -16 25 -17 23 C-4.51480638 19.55580866 -4.51480638 19.55580866 2 20 C1.67 19.01 1.34 18.02 1 17 C0.85596652 15.66636297 0.75409577 14.32781954 0.68359375 12.98828125 C0.64169922 12.23095703 0.59980469 11.47363281 0.55664062 10.69335938 C0.51732422 9.90767578 0.47800781 9.12199219 0.4375 8.3125 C0.39431641 7.51521484 0.35113281 6.71792969 0.30664062 5.89648438 C0.20072632 3.93118553 0.09987449 1.96561504 0 0 Z " fill="#F6F7FB" transform="translate(235,82)"/>
<path d="M0 0 C1.45986328 -0.01836914 1.45986328 -0.01836914 2.94921875 -0.03710938 C20.09630404 -0.07126692 37.53402188 5.38502099 52.75 13.1875 C53.245 14.1775 53.245 14.1775 53.75 15.1875 C49.15944767 14.64921389 44.92695697 13.72733904 40.49755859 12.42236328 C15.3967049 5.11653459 -12.11986197 4.43410045 -35.9375 16.125 C-36.59693604 16.44863525 -37.25637207 16.77227051 -37.93579102 17.10571289 C-42.08557513 19.26832178 -44.97548556 21.79498504 -48.25 25.1875 C-48.91 25.1875 -49.57 25.1875 -50.25 25.1875 C-52.79366482 31.46187322 -55.11734864 37.71075588 -52.35546875 44.33203125 C-51.39608065 45.99655265 -50.33124099 47.5994273 -49.25 49.1875 C-53.93317784 47.45298969 -57.04620379 43.59509243 -59.25 39.1875 C-60.21119053 31.5925191 -58.25419693 26.4974725 -53.96484375 20.34375 C-44.9026891 8.8330466 -29.17674178 3.19050576 -15.16015625 0.62109375 C-10.09358975 0.0592667 -5.09375317 0.00332057 0 0 Z " fill="#F4CF56" transform="translate(172.25,297.8125)"/>
<path d="M0 0 C2.875 0.5625 2.875 0.5625 6 2 C7.99677466 7.17316208 8.28649669 11.87635235 8.1875 17.375 C8.17783203 18.49056274 8.17783203 18.49056274 8.16796875 19.62866211 C8.09554244 24.80770876 7.74615826 29.87016197 7 35 C6 33 5 31 4 29 C4.33 28.34 4.66 27.68 5 27 C4.34 27 3.68 27 3 27 C5.93335251 44.93399261 10.80301159 63.54308366 19.375 79.6875 C20.94338021 82.88458274 21.59613565 84.52254203 21 88 C20.34 88.99 19.68 89.98 19 91 C17.68 91 16.36 91 15 91 C14.67 91.99 14.34 92.98 14 94 C14.0825 93.21625 14.165 92.4325 14.25 91.625 C13.9015399 86.57232861 12.02045047 82.60662706 10 78 C-1.24060368 51.97723258 -9.33027128 27.99081385 0 0 Z M0 3 C1 5 1 5 1 5 Z " fill="#FBF2EF" transform="translate(134,52)"/>
<path d="M0 0 C7.77096051 0.53564415 14.66940633 2.55195007 22.0625 4.9375 C32.45408578 8.24367467 32.45408578 8.24367467 43 11 C41.6243563 14.85041981 39.83312893 17.8816321 37.4375 21.1875 C35.02799361 24.47878323 35.02799361 24.47878323 33 28 C25.80925327 26.74740576 19.02533607 24.86272252 12.125 22.5 C11.20203125 22.19191406 10.2790625 21.88382813 9.328125 21.56640625 C5.41015295 20.2433809 1.66926415 18.92314273 -2 17 C-2.21862038 10.98793965 -1.4669415 5.81927842 0 0 Z " fill="#FEF7F7" transform="translate(22,195)"/>
<path d="M0 0 C3.79923729 2.77572387 6.28933468 6.18864027 9 10 C10.10539101 11.34963458 11.22927238 12.68443511 12.375 14 C12.92027344 14.63679687 13.46554688 15.27359375 14.02734375 15.9296875 C17.35398666 19.4210157 21.11603058 22.45057692 24.83984375 25.5078125 C27 28 27 28 27.37890625 31.15625 C27.01367429 33.89737232 26.43933829 35.66107527 25 38 C25.804375 38.144375 26.60875 38.28875 27.4375 38.4375 C30 39 30 39 31 40 C32.51928038 40.07179964 34.04167482 40.08392007 35.5625 40.0625 C36.38878906 40.05347656 37.21507812 40.04445313 38.06640625 40.03515625 C38.70449219 40.02355469 39.34257812 40.01195312 40 40 C37.22719294 36.91910327 34.93673644 35.31224548 31 34 C31 33.34 31 32.68 31 32 C36.36716665 31.16138021 39.79627239 34.07929595 44 37 C43.6875 39.375 43.6875 39.375 43 42 C39.19007219 44.53995188 37.54175332 44.42407938 33 44 C29.80963235 42.95688475 26.79571439 41.59226811 23.75 40.1875 C12.86957951 35.23126233 3.03312323 32.4307944 -9 32.5 C-10.05437256 32.50064453 -11.10874512 32.50128906 -12.19506836 32.50195312 C-18.91967214 32.63142302 -24.04093997 33.46211362 -29.9453125 36.87890625 C-33.74826271 38.9539 -37.22308299 38.49358806 -41.25 37.375 C-44.64378702 34.70845305 -45.79514959 31.63880331 -46.32421875 27.40625 C-46.52815151 22.28683449 -46.40393375 17.85726036 -43.43359375 13.55078125 C-33.59988812 2.91323048 -14.09320346 -2.6806872 0 0 Z M-40 16 C-42.28219901 19.42329851 -42.29741163 20.84137668 -42.3125 24.875 C-42.32925781 25.90367187 -42.34601563 26.93234375 -42.36328125 27.9921875 C-41.95707915 31.3553662 -40.92437719 33.2479883 -39 36 C-34.18960351 35.506626 -30.37454769 33.96869943 -26.05078125 31.9375 C-15.6794698 27.19632905 1.0513407 28.52776563 11.75 31.9375 C13.50189665 32.62015246 15.2521737 33.30699244 17 34 C18.65914502 34.36895352 20.32460683 34.71373678 22 35 C22.33 33.02 22.66 31.04 23 29 C22.34 29 21.68 29 21 29 C20.505 27.515 20.505 27.515 20 26 C18.37571904 24.353524 18.37571904 24.353524 16.375 22.75 C13.62059839 20.40875863 10.94302755 18.04509873 8.375 15.5 C7.79363281 14.93152344 7.21226562 14.36304688 6.61328125 13.77734375 C5 12 5 12 3.79296875 10.00390625 C2.34292026 7.71605196 1.3043175 6.45626013 -1 5 C-15.10222782 2.65491043 -29.21792208 6.5738832 -40 16 Z " fill="#1E4700" transform="translate(163,235)"/>
<path d="M0 0 C16.56884792 -0.53447897 31.91764367 1.79548427 48.0546875 5.37109375 C60.31501266 7.98901464 71.73277323 6.68580294 84 5 C82 7 82 7 79.6875 7.3125 C76.63635801 8.09302469 75.77215964 9.27599867 73.70703125 11.53125 C64.73248824 19.25305359 53.03562389 21.5147533 41.59375 21.30078125 C33.18984031 20.59741055 29.02956522 16.46679599 23.46875 10.4140625 C21.65086159 7.42615017 21.72266305 5.43699718 22 2 C20.35 2 18.7 2 17 2 C16.67 2.99 16.34 3.98 16 5 C16 4.01 16 3.02 16 2 C15.26394531 2.01160156 14.52789062 2.02320313 13.76953125 2.03515625 C12.79371094 2.04417969 11.81789062 2.05320312 10.8125 2.0625 C9.36810547 2.07990234 9.36810547 2.07990234 7.89453125 2.09765625 C5.14423487 2.00486622 2.67520409 1.62111685 0 1 C0 0.67 0 0.34 0 0 Z " fill="#497C09" transform="translate(194,319)"/>
<path d="M0 0 C1.1055189 0.93590504 2.20935453 1.87379858 3.3125 2.8125 C3.92738281 3.33457031 4.54226563 3.85664062 5.17578125 4.39453125 C8.51952278 7.3373102 8.51952278 7.3373102 10 9 C10 9.66 10 10.32 10 11 C10.66 11 11.32 11 12 11 C13.26171875 12.38256836 13.26171875 12.38256836 14.6875 14.33984375 C15.21666016 15.06486084 15.74582031 15.78987793 16.29101562 16.53686523 C16.85498047 17.32907471 17.41894531 18.12128418 18 18.9375 C18.57943359 19.74711182 19.15886719 20.55672363 19.75585938 21.39086914 C40 50.07285221 40 50.07285221 40 59 C28.1916909 58.49751876 19.13756411 48.40384029 11.4375 40.3046875 C8.40458596 36.97042624 5.50258726 33.75388089 3 30 C3.22948992 27.5521075 3.85582978 26.20904682 5.25 24.1875 C7 23 7 23 9.6875 23.3125 C10.450625 23.539375 11.21375 23.76625 12 24 C11.67 23.01 11.34 22.02 11 21 C10.65772583 19.66893378 10.32248257 18.33599921 10 17 C10.66 17 11.32 17 12 17 C12 16.34 12 15.68 12 15 C11.278125 14.814375 10.55625 14.62875 9.8125 14.4375 C6.42051243 12.70381747 5.15204921 10.79077273 3.11328125 7.65625 C1.972211 5.84395211 1.972211 5.84395211 0 4 C0 2.68 0 1.36 0 0 Z " fill="#0F4BB3" transform="translate(308,55)"/>
<path d="M0 0 C1.08539063 -0.01611328 2.17078125 -0.03222656 3.2890625 -0.04882812 C10.9386899 -0.05339234 17.68055803 1.13578137 25 3.3125 C25.71220703 3.5175415 26.42441406 3.72258301 27.15820312 3.93383789 C28.86170438 4.43517061 30.55640754 4.9661502 32.25 5.5 C33.34828125 5.84417969 34.4465625 6.18835938 35.578125 6.54296875 C36.37734375 6.79691406 37.1765625 7.05085937 38 7.3125 C38.33 6.9825 38.66 6.6525 39 6.3125 C38.34 4.9925 37.68 3.6725 37 2.3125 C46.99035161 8.97273441 54.66063001 23.63952115 57 35.3125 C56.67 36.3025 56.34 37.2925 56 38.3125 C54.33333333 36.64583333 52.66666667 34.97916667 51 33.3125 C50.401875 32.755625 49.80375 32.19875 49.1875 31.625 C48 30.3125 48 30.3125 48 28.3125 C46.515 27.8175 46.515 27.8175 45 27.3125 C45 26.6525 45 25.9925 45 25.3125 C44.42378906 25.04953125 43.84757812 24.7865625 43.25390625 24.515625 C40.8757291 23.24616475 39.01011998 21.78258088 36.9375 20.0625 C22.12167549 8.37985805 6.56797343 3.95108114 -12 4.1875 C-13.36067049 4.19755022 -14.72134817 4.20667246 -16.08203125 4.21484375 C-19.38820647 4.2382918 -22.6940088 4.27111144 -26 4.3125 C-25.67 3.6525 -25.34 2.9925 -25 2.3125 C-16.86693063 0.08028796 -8.37480782 -0.02486582 0 0 Z " fill="#477B09" transform="translate(252,221.6875)"/>
<path d="M0 0 C3.65851386 2.92681109 5.73784098 4.65745254 8.3125 8.25 C9.08013672 9.30960938 9.08013672 9.30960938 9.86328125 10.390625 C10.23839844 10.92171875 10.61351562 11.4528125 11 12 C12.5625 11.6875 14.125 11.375 15.6875 11.0625 C18.40234375 10.51953125 21.1171875 9.9765625 23.83203125 9.43359375 C24.54746094 9.29050781 25.26289063 9.14742187 26 9 C25.08934507 11.06967029 24.11530783 12.85868803 22.68359375 14.61328125 C21.25268868 16.37169592 20.01673664 17.97089039 19 20 C19.51525421 23.38800816 19.51525421 23.38800816 21 26 C21.66 26 22.32 26 23 26 C24.2890625 27.4609375 24.2890625 27.4609375 25.625 29.375 C26.07101562 30.00148438 26.51703125 30.62796875 26.9765625 31.2734375 C28 33 28 33 28 35 C22.27789404 33.13236819 16.62338249 31.14710968 11 29 C10.7525 29.70125 10.505 30.4025 10.25 31.125 C8.83440046 34.38087894 7.07362202 37.12368559 5 40 C4.67 40 4.34 40 4 40 C3.92265625 38.44539063 3.92265625 38.44539063 3.84375 36.859375 C3.57237799 29.4797627 3.57237799 29.4797627 0.33203125 23.21875 C-1.76297499 22.21379536 -3.7524822 21.58104589 -6 21 C-7.34168459 20.43614006 -8.67592685 19.85405781 -10 19.25 C-10.99 18.8375 -11.98 18.425 -13 18 C-13 17.67 -13 17.34 -13 17 C-6.07 16.01 -6.07 16.01 1 15 C0.67 10.05 0.34 5.1 0 0 Z " fill="#F5F6FB" transform="translate(242,35)"/>
<path d="M0 0 C1.81242052 -0.02687279 3.62495233 -0.04633715 5.4375 -0.0625 C6.44683594 -0.07410156 7.45617187 -0.08570313 8.49609375 -0.09765625 C11 0 11 0 12 1 C13.09778822 14.99679976 9.58515136 26.96277936 0.44921875 37.84765625 C-1 39 -1 39 -3.6875 39 C-7.97738485 37.70494042 -11.3292387 35.52481297 -15 33 C-13.23130325 29.04023116 -10.69372936 26.33197042 -7.75390625 23.1953125 C-3.85205108 18.31147596 -2.38724028 13.18583043 -1.3125 7.125 C-1.18294922 6.43664062 -1.05339844 5.74828125 -0.91992188 5.0390625 C-0.60525879 3.36085938 -0.30148535 1.68062047 0 0 Z " fill="#457B05" transform="translate(215,228)"/>
<path d="M0 0 C2.88085938 2.29492188 2.88085938 2.29492188 5.76171875 4.58984375 C9.19316485 6.75171468 11.69624628 7.27217049 15.67578125 6.44140625 C16.54589844 6.15136719 17.41601562 5.86132812 18.3125 5.5625 C19.19550781 5.27503906 20.07851562 4.98757812 20.98828125 4.69140625 C21.65214844 4.46324219 22.31601563 4.23507813 23 4 C22.02254667 6.70679384 21.18026942 8.78634735 19.3125 11 C17.79923322 12.92378877 17.79923322 12.92378877 17.9375 15.3125 C19.48450772 19.22551953 22.13884625 21.96385213 25 25 C22.0894446 26.4552777 20.04150948 25.63516661 16.875 25.0625 C15.77929688 24.86785156 14.68359375 24.67320313 13.5546875 24.47265625 C12.71164063 24.31667969 11.86859375 24.16070312 11 24 C10.59007812 24.721875 10.18015625 25.44375 9.7578125 26.1875 C9.21898437 27.115625 8.68015625 28.04375 8.125 29 C7.59132812 29.928125 7.05765625 30.85625 6.5078125 31.8125 C6.01023438 32.534375 5.51265625 33.25625 5 34 C4.34 34 3.68 34 3 34 C3 29.38 3 24.76 3 20 C1.246875 19.896875 -0.50625 19.79375 -2.3125 19.6875 C-7.625 19.375 -7.625 19.375 -11 16 C-7.37 14.68 -3.74 13.36 0 12 C0 8.04 0 4.08 0 0 Z " fill="#F4F5FA" transform="translate(193,25)"/>
<path d="M0 0 C1.79244141 0.01740234 1.79244141 0.01740234 3.62109375 0.03515625 C5.41740234 0.04869141 5.41740234 0.04869141 7.25 0.0625 C8.17683594 0.07410156 9.10367188 0.08570313 10.05859375 0.09765625 C10.86875333 9.56752155 9.06265818 16.00984711 3.16796875 23.5 C1.51031955 25.41707804 -0.17781604 27.27815972 -1.94140625 29.09765625 C-5.80359283 28.57069124 -7.89254393 27.672098 -10.75390625 25.03515625 C-11.35847656 24.48730469 -11.96304688 23.93945312 -12.5859375 23.375 C-13.03324219 22.95347656 -13.48054687 22.53195313 -13.94140625 22.09765625 C-13.54308594 21.65035156 -13.14476562 21.20304687 -12.734375 20.7421875 C-7.61892639 14.90485077 -4.70036913 10.86940809 -4.15234375 2.98828125 C-3.80071773 -0.16332977 -3.24529874 0.10774564 0 0 Z " fill="#447B05" transform="translate(199.94140625,227.90234375)"/>
<path d="M0 0 C0.66 0 1.32 0 2 0 C3.7265625 1.96875 3.7265625 1.96875 5.625 4.5 C6.25664062 5.3353125 6.88828125 6.170625 7.5390625 7.03125 C8.02117187 7.6809375 8.50328125 8.330625 9 9 C9.60328125 8.79503906 10.2065625 8.59007813 10.828125 8.37890625 C11.62734375 8.10949219 12.4265625 7.84007813 13.25 7.5625 C14.03890625 7.29566406 14.8278125 7.02882813 15.640625 6.75390625 C17.74821988 6.08045292 19.84753973 5.50849405 22 5 C21.02254667 7.70679384 20.18026942 9.78634735 18.3125 12 C16.70189681 13.98950315 16.70189681 13.98950315 17.3125 16.75 C17.6528125 17.86375 17.6528125 17.86375 18 19 C18.66 19 19.32 19 20 19 C21.38232443 20.62626404 22.71937515 22.2925002 24 24 C20.57056481 25.18771723 18.62215325 24.80226223 15.25 23.5625 C14.45078125 23.27503906 13.6515625 22.98757812 12.828125 22.69140625 C11.92320312 22.34916016 11.92320312 22.34916016 11 22 C10.7525 22.7425 10.505 23.485 10.25 24.25 C8.90852699 27.20124062 7.39094474 28.84814974 5 31 C4.34 27.7 3.68 24.4 3 21 C-0.63 20.34 -4.26 19.68 -8 19 C-8 18.34 -8 17.68 -8 17 C-5.03 15.68 -2.06 14.36 1 13 C1.08948558 8.52572076 0.85743651 4.39436211 0 0 Z " fill="#F2F4FA" transform="translate(190,65)"/>
<path d="M0 0 C1.65 0 3.3 0 5 0 C5.185625 0.99 5.37125 1.98 5.5625 3 C7.34574408 9.17856399 11.75937408 13.50624939 17 17 C27.04031641 20.45206384 38.61567847 18.27391802 48 14 C54.94420433 10.86289206 54.94420433 10.86289206 59 5 C61.64 4.67 64.28 4.34 67 4 C62.14408138 13.20068791 51.56023145 18.66036893 42 22 C37.34099932 23.01814953 32.75183763 23.18303399 28 23.1875 C27.31421875 23.19974609 26.6284375 23.21199219 25.921875 23.22460938 C18.74287428 23.24515995 13.65743584 21.36094013 8 17 C3.63726477 12.63726477 0.15888303 8.57486824 -0.125 2.1875 C-0.08375 1.465625 -0.0425 0.74375 0 0 Z " fill="#285001" transform="translate(211,321)"/>
<path d="M0 0 C4.89365261 2.44682631 7.02524514 11.33081145 8.8359375 16.2890625 C11.19847336 24.60929748 10.22033479 32.79269105 8 41 C6.51800098 40.55090939 5.03944764 40.09043436 3.5625 39.625 C2.32693359 39.24214844 2.32693359 39.24214844 1.06640625 38.8515625 C-1 38 -1 38 -2 36 C-1.34 36 -0.68 36 0 36 C-0.32511448 27.16585477 -0.88227195 18.97382241 -3.4765625 10.453125 C-4.03654194 7.82874375 -3.93802204 6.48709843 -3 4 C-1.4375 1.75 -1.4375 1.75 0 0 Z " fill="#467C06" transform="translate(220,265)"/>
<path d="M0 0 C4.04090037 2.09331888 6.94572589 3.00222484 11.5625 2.1875 C14.3530817 0.28933458 14.3530817 0.28933458 16.5625 -1.8125 C17.2225 -1.8125 17.8825 -1.8125 18.5625 -1.8125 C20.46370099 5.31700371 20.78674141 11.82490707 20.5625 19.1875 C18.9125 18.8575 17.2625 18.5275 15.5625 18.1875 C15.72621094 17.64609375 15.88992187 17.1046875 16.05859375 16.546875 C16.64840587 13.78527407 16.65859308 11.25931861 16.625 8.4375 C16.61597656 7.45265625 16.60695313 6.4678125 16.59765625 5.453125 C16.58605469 4.70546875 16.57445312 3.9578125 16.5625 3.1875 C15.94375 3.6825 15.325 4.1775 14.6875 4.6875 C10.17424386 6.85386295 6.4833622 7.04300456 1.5625 6.1875 C-2.60681226 4.49011201 -6.48483307 2.33248059 -10.4375 0.1875 C-23.72254578 -6.1218556 -36.97507593 -7.28524268 -51.4375 -6.8125 C-51.4375 -7.4725 -51.4375 -8.1325 -51.4375 -8.8125 C-35.69670597 -15.61932985 -14.13270951 -7.53602184 0 0 Z " fill="#1E4800" transform="translate(192.4375,278.8125)"/>
<path d="M0 0 C1.46373047 0.01353516 1.46373047 0.01353516 2.95703125 0.02734375 C4.06111328 0.04474609 4.06111328 0.04474609 5.1875 0.0625 C5.1875 4.0625 5.1875 4.0625 3.47265625 5.9140625 C2.73917969 6.49929687 2.00570312 7.08453125 1.25 7.6875 C-1.74509705 9.99873974 -1.74509705 9.99873974 -3.8125 13.0625 C-5.484375 13.80859375 -5.484375 13.80859375 -7.5625 14.5 C-10.17948814 15.41758439 -12.22219799 16.3083188 -14.625 17.75 C-16.8125 19.0625 -16.8125 19.0625 -19.8125 19.0625 C-21.02510877 15.42467368 -21.20794552 12.88514001 -20.8125 9.0625 C-15.10915187 1.89257664 -8.86273601 -0.10677995 0 0 Z " fill="#649412" transform="translate(146.8125,245.9375)"/>
<path d="M0 0 C2.46800047 1.15173355 4.04783565 2.04783565 6 4 C6.22731851 6.93742748 6.32418367 9.75022582 6.3125 12.6875 C6.32861328 13.47833984 6.34472656 14.26917969 6.36132812 15.08398438 C6.36577885 20.473817 5.44015702 24.19050847 3 29 C1.68 28.67 0.36 28.34 -1 28 C-0.505 26.783125 -0.01 25.56625 0.5 24.3125 C2.55731273 18.2661255 2.26343324 12.31264087 2 6 C-0.73717965 7.31700218 -3.27136944 8.77619061 -5.8125 10.4375 C-15.94710084 16.77859888 -29.04902922 20.31875574 -41 21 C-41.66 20.34 -42.32 19.68 -43 19 C-41 16 -41 16 -39.12744141 15.37158203 C-38.37640137 15.25153809 -37.62536133 15.13149414 -36.8515625 15.0078125 C-36.01665283 14.86303467 -35.18174316 14.71825684 -34.3215332 14.5690918 C-32.98674927 14.34926636 -32.98674927 14.34926636 -31.625 14.125 C-19.25748534 11.85166494 -9.58079492 8.39529252 0 0 Z " fill="#1D4600" transform="translate(219,187)"/>
<path d="M0 0 C1.98 0 3.96 0 6 0 C5.96519531 1.00160156 5.93039063 2.00320313 5.89453125 3.03515625 C5.66236275 12.41735649 5.86807745 19.18515397 12.41796875 26.5859375 C19.9913502 33.35523153 29.19698748 35.26380538 39 36 C34.12442786 38.66239108 29.20337185 39.60266826 23.6953125 38.56640625 C14.53734605 35.76197708 8.02376971 31.19511696 3 23 C2.4534375 22.10925781 1.906875 21.21851563 1.34375 20.30078125 C-0.37266132 16.08459646 -0.33602579 12.61885711 -0.1875 8.125 C-0.17396484 7.34125 -0.16042969 6.5575 -0.14648438 5.75 C-0.11141789 3.83303218 -0.05762072 1.91642249 0 0 Z " fill="#2C5301" transform="translate(193,320)"/>
<path d="M0 0 C0.928125 0.4640625 0.928125 0.4640625 1.875 0.9375 C5.54109211 2.18397132 8.94754069 2.47140854 12.79296875 2.75390625 C15 3 15 3 17 4 C17 4.66 17 5.32 17 6 C16.01 6 15.02 6 14 6 C14.20625 6.721875 14.4125 7.44375 14.625 8.1875 C15.06713031 11.50347731 14.38361519 13.00216709 13 16 C11.8545743 19.33214749 12.14814085 21.59256339 13 25 C4.57142857 26.42857143 4.57142857 26.42857143 0 24 C0 22.35 0 20.7 0 19 C0.99 18.67 1.98 18.34 3 18 C3.08082094 16.04233719 3.13910778 14.08373272 3.1875 12.125 C3.22230469 11.03445312 3.25710938 9.94390625 3.29296875 8.8203125 C3.14794922 7.42425781 3.14794922 7.42425781 3 6 C2.01 5.34 1.02 4.68 0 4 C0 2.68 0 1.36 0 0 Z " fill="#F9C8C4" transform="translate(334,130)"/>
<path d="M0 0 C-0.40281771 5.84085674 -1.112779 9.37735881 -5 14 C-6.93753311 15.52539281 -8.86804212 16.74020671 -11 18 C-12.48827426 16.59290434 -13.96533185 15.17393799 -15.4375 13.75 C-16.26121094 12.96109375 -17.08492187 12.1721875 -17.93359375 11.359375 C-19.91885207 9.09265283 -20.6300359 7.9328063 -21 5 C-19.25093469 4.35163958 -17.50070781 3.70641216 -15.75 3.0625 C-14.77546875 2.70285156 -13.8009375 2.34320313 -12.796875 1.97265625 C-8.31312118 0.41336198 -4.77279878 -0.1084727 0 0 Z " fill="#447A05" transform="translate(193,229)"/>
<path d="M0 0 C2.60608273 2.5162178 4.89381685 5.05134359 7 8 C9.64 7.67 12.28 7.34 15 7 C14.690625 7.5775 14.38125 8.155 14.0625 8.75 C13.5365625 9.86375 13.5365625 9.86375 13 11 C12.690625 11.61875 12.38125 12.2375 12.0625 12.875 C11.95522257 16.52243256 14.59333136 18.41723366 17 21 C13.18510326 22.46726798 10.70988378 21.43336419 7 20 C6.38125 20.99 5.7625 21.98 5.125 23 C4.42375 23.99 3.7225 24.98 3 26 C2.34 26 1.68 26 1 26 C1 22.7 1 19.4 1 16 C0.071875 15.87625 -0.85625 15.7525 -1.8125 15.625 C-5 15 -5 15 -8 13 C-4.62902617 11.50178941 -2.79557881 11 1 11 C0.67 7.37 0.34 3.74 0 0 Z " fill="#F0F2F9" transform="translate(267,144)"/>
<path d="M0 0 C-0.495 1.010625 -0.99 2.02125 -1.5 3.0625 C-3.41471446 7.6339953 -3.85320529 11.4622612 -2.23828125 16.265625 C1.37381233 24.88896304 5.74724341 28.8590922 14 33 C14.65484375 33.35449219 15.3096875 33.70898438 15.984375 34.07421875 C18.22533043 35.10349479 20.33717059 35.628241 22.75 36.125 C23.54921875 36.29257812 24.3484375 36.46015625 25.171875 36.6328125 C26.07679688 36.81457031 26.07679688 36.81457031 27 37 C27 37.33 27 37.66 27 38 C21.72 38 16.44 38 11 38 C11 37.34 11 36.68 11 36 C10.41992188 35.8865625 9.83984375 35.773125 9.2421875 35.65625 C2.35886436 33.64161884 -2.09395146 28.01987257 -5.87109375 22.24609375 C-8.78575446 16.44702833 -8.83428828 9.26762912 -7.25 3.0625 C-5.40206722 0.01341091 -3.4047658 -1.7023829 0 0 Z " fill="#284F01" transform="translate(180,324)"/>
<path d="M0 0 C1.98 0.99 1.98 0.99 4 2 C4 2.66 4 3.32 4 4 C4.66 4 5.32 4 6 4 C16.52958383 17.23491771 19.71870081 31.45478527 18 48 C17.67 48.66 17.34 49.32 17 50 C13.7 49.34 10.4 48.68 7 48 C8.32 47.34 9.64 46.68 11 46 C14.66308821 35.08826104 11.8480414 22.3639011 7.21875 12.24609375 C5.51756435 9.11089585 3.42325554 6.38740468 1.171875 3.62890625 C0 2 0 2 0 0 Z " fill="#457B06" transform="translate(230,263)"/>
<path d="M0 0 C0.66 0.33 1.32 0.66 2 1 C1.154375 1.598125 0.30875 2.19625 -0.5625 2.8125 C-2.49624265 4.75175189 -2.97073451 5.74342586 -3.28515625 8.5 C-2.85919791 15.98024397 -0.45848602 21.12064002 4.4765625 26.65625 C6.07406819 28.24157477 6.07406819 28.24157477 9 29 C9.33 29.99 9.66 30.98 10 32 C3.13498139 31.14187267 -3.18779205 27.77495644 -7.8671875 22.69921875 C-9.93164786 19.60252821 -10.29164141 16.66330065 -10 13 C-8.28971005 6.80019893 -4.974776 3.72085985 0 0 Z " fill="#4F800C" transform="translate(164,328)"/>
<path d="M0 0 C5.63775254 1.87925085 8.56586382 8.31649365 11.2734375 13.3828125 C15.90135154 23.36936385 18.18229397 34.63056114 14.984375 45.4296875 C14.65953125 46.27789062 14.3346875 47.12609375 14 48 C12.68 47.67 11.36 47.34 10 47 C10.33 46.01 10.66 45.02 11 44 C12.24930442 28.26508994 10.19358277 14.59207283 0 2 C0 1.34 0 0.68 0 0 Z " fill="#1C4600" transform="translate(227,262)"/>
<path d="M0 0 C0 0.99 0 1.98 0 3 C-0.66 3 -1.32 3 -2 3 C-2 3.66 -2 4.32 -2 5 C-3.65071396 6.02611949 -5.31970006 7.02308143 -7 8 C-8.75149165 9.58245275 -8.75149165 9.58245275 -10 11 C-10 10.34 -10 9.68 -10 9 C-13.98663803 8.26949555 -13.98663803 8.26949555 -18 8 C-19.89958081 9.31318262 -19.89958081 9.31318262 -21 11 C-21.66 11 -22.32 11 -23 11 C-23.10957031 11.77085938 -23.21914063 12.54171875 -23.33203125 13.3359375 C-23.49058594 14.33882812 -23.64914063 15.34171875 -23.8125 16.375 C-23.96332031 17.37273438 -24.11414062 18.37046875 -24.26953125 19.3984375 C-25 22 -25 22 -28 24 C-29 23 -29 23 -29.25 20.25 C-28.97252094 16.64277217 -28.18164329 14.85291814 -26 12 C-25.34 12 -24.68 12 -24 12 C-23.79375 11.2575 -23.5875 10.515 -23.375 9.75 C-21.55718769 6.11437538 -19.5624345 4.88599474 -16 3 C-13.125 2.75 -13.125 2.75 -11 3 C-10.67 2.34 -10.34 1.68 -10 1 C-6.70581806 -0.22006738 -3.47634765 -0.0790079 0 0 Z " fill="#F1CFCC" transform="translate(80,30)"/>
<path d="M0 0 C1 3 1 3 0 6 C-0.55713714 12.46279087 0.25493461 17.58000587 4 23 C6.5397397 25.35662368 9.15341185 27.42965256 11.953125 29.46875 C12.62859375 29.9740625 13.3040625 30.479375 14 31 C14 31.33 14 31.66 14 32 C12.02 32 10.04 32 8 32 C7.67 31.01 7.34 30.02 7 29 C6.4225 28.87625 5.845 28.7525 5.25 28.625 C0.97852934 27.43848037 -1.33436566 23.97467885 -3.75 20.4375 C-5.58481916 15.39174731 -5.7497318 10.33330164 -6 5 C-5.01 4.67 -4.02 4.34 -3 4 C-1.31461399 2.00334686 -1.31461399 2.00334686 0 0 Z " fill="#2D5402" transform="translate(166,328)"/>
<path d="M0 0 C0.66 1.32 1.32 2.64 2 4 C-11.24808001 13.07103831 -25.09636558 16.29330473 -41 16 C-41 15.01 -41 14.02 -41 13 C-40.2471875 12.98582031 -39.494375 12.97164062 -38.71875 12.95703125 C-26.4505927 12.40615525 -9.10939539 9.10939539 0 0 Z " fill="#EFD056" transform="translate(103,241)"/>
<path d="M0 0 C1.91767244 1.6014605 2.89703456 2.55553253 3.46875 5.0234375 C3.62097504 16.47837157 -1.39341224 27.51204439 -9 36 C-9.66 36 -10.32 36 -11 36 C-10.13193871 33.25113926 -9.23843398 30.54484701 -8.08203125 27.90234375 C-4.84232569 20.46715742 -3.3979102 12.94267158 -2 5 C-1.34 5 -0.68 5 0 5 C0 3.35 0 1.7 0 0 Z " fill="#0D4AB2" transform="translate(331,264)"/>
<path d="M0 0 C10.92658082 3.79056155 20.89734768 8.39404181 31 14 C33.6523122 15.366227 36.32057048 16.68762636 39 18 C39 18.66 39 19.32 39 20 C34.77528653 19.39313508 31.67586847 17.90089591 27.9375 15.875 C21.09093363 12.27793892 13.99701953 9.74050832 6.66577148 7.31005859 C5.84407471 7.03629395 5.02237793 6.7625293 4.17578125 6.48046875 C3.44270752 6.24223389 2.70963379 6.00399902 1.9543457 5.75854492 C0 5 0 5 -3 3 C-2.01 2.67 -1.02 2.34 0 2 C0 1.34 0 0.68 0 0 Z " fill="#EBCF5D" transform="translate(245,176)"/>
<path d="M0 0 C0.5775 0.7425 1.155 1.485 1.75 2.25 C5.34772177 6.75089823 5.34772177 6.75089823 10 10 C10 10.66 10 11.32 10 12 C9.34 12 8.68 12 8 12 C8.680625 13.11375 9.36125 14.2275 10.0625 15.375 C11.22265625 17.2734375 11.22265625 17.2734375 12 19 C11.67 19.66 11.34 20.32 11 21 C8.69 19.35 6.38 17.7 4 16 C4 16.66 4 17.32 4 18 C3.01 18.33 2.02 18.66 1 19 C1 16.03 1 13.06 1 10 C-0.32 9.34 -1.64 8.68 -3 8 C-3.66 7.01 -4.32 6.02 -5 5 C-3.68 5 -2.36 5 -1 5 C-0.67 3.35 -0.34 1.7 0 0 Z " fill="#EAEBF6" transform="translate(310,60)"/>
<path d="M0 0 C5.90270467 4.72216374 9.29333596 11.53285892 10.26318359 19.03613281 C10.76163843 25.88870747 11.19469695 32.20997947 7 38 C6.01 37.67 5.02 37.34 4 37 C4.33 35.88625 4.66 34.7725 5 33.625 C7.15656468 24.81256305 5.9622203 17.44633085 3 9 C2.43657862 7.29197032 1.87402906 5.58365273 1.3125 3.875 C0.87655299 2.58280836 0.43966502 1.29093133 0 0 Z " fill="#1D4700" transform="translate(223,268)"/>
<path d="M0 0 C4.27575458 1.33777351 8.21961859 2.98683511 12.25 4.9375 C17.73050162 7.51100765 23.14113745 9.49230174 29 11 C29 11.66 29 12.32 29 13 C21.89245415 12.09198753 15.21919899 10.24614198 8.4375 8 C7.63973145 7.73880371 6.84196289 7.47760742 6.02001953 7.20849609 C5.26962402 6.95406738 4.51922852 6.69963867 3.74609375 6.4375 C3.07247803 6.20933594 2.3988623 5.98117187 1.70483398 5.74609375 C0 5 0 5 -2 3 C-1.34 3 -0.68 3 0 3 C0 2.01 0 1.02 0 0 Z " fill="#568515" transform="translate(115,347)"/>
<path d="M0 0 C-1.3125 1.5 -1.3125 1.5 -3 3 C-3.99 3 -4.98 3 -6 3 C-6 3.99 -6 4.98 -6 6 C-7.175625 6.37125 -7.175625 6.37125 -8.375 6.75 C-11.40937999 8.19494285 -11.67029725 9.05565819 -13 12 C-13.99 12.33 -14.98 12.66 -16 13 C-16.25481803 7.3940034 -15.65223244 4.85250304 -11.9375 0.6875 C-7.7796927 -1.7010276 -4.56862391 -0.91571547 0 0 Z " fill="#F8E9E7" transform="translate(71,38)"/>
<path d="M0 0 C1.77548152 2.66322227 2.53370674 4.35597958 3.40234375 7.3515625 C3.77842773 8.62966797 3.77842773 8.62966797 4.16210938 9.93359375 C4.41798828 10.82175781 4.67386719 11.70992187 4.9375 12.625 C6.83284799 19.13026087 8.8070951 25.58816857 11 32 C10.01 31.67 9.02 31.34 8 31 C7.67 31.66 7.34 32.32 7 33 C-0.1872403 9.60032071 -0.1872403 9.60032071 0 0 Z " fill="#F9CF79" transform="translate(136,76)"/>
<path d="M0 0 C1.66289062 0.00966797 1.66289062 0.00966797 3.359375 0.01953125 C4.50148437 0.03628906 5.64359375 0.05304687 6.8203125 0.0703125 C8.56828125 0.08384766 8.56828125 0.08384766 10.3515625 0.09765625 C13.21635827 0.12113818 16.08072785 0.15398109 18.9453125 0.1953125 C18.9453125 0.5253125 18.9453125 0.8553125 18.9453125 1.1953125 C7.5603125 2.1853125 7.5603125 2.1853125 -4.0546875 3.1953125 C-1.4146875 3.5253125 1.2253125 3.8553125 3.9453125 4.1953125 C3.9453125 4.5253125 3.9453125 4.8553125 3.9453125 5.1953125 C-6.4496875 5.6903125 -6.4496875 5.6903125 -17.0546875 6.1953125 C-15.7346875 5.5353125 -14.4146875 4.8753125 -13.0546875 4.1953125 C-12.7246875 3.5353125 -12.3946875 2.8753125 -12.0546875 2.1953125 C-7.93111842 0.48572292 -4.44025358 -0.04577581 0 0 Z " fill="#9290BE" transform="translate(219.0546875,10.8046875)"/>
<path d="M0 0 C2.33061852 3.49592778 2.70295038 5.84130536 3 10 C2.01 11.485 2.01 11.485 1 13 C-0.32 13 -1.64 13 -3 13 C-3.33 13.99 -3.66 14.98 -4 16 C-3.979375 15.0925 -3.95875 14.185 -3.9375 13.25 C-3.9889755 10.57327412 -4.2215017 8.53011948 -5 6 C-4.01 6 -3.02 6 -2 6 C-2 4.68 -2 3.36 -2 2 C-1.34 2 -0.68 2 0 2 C0 1.34 0 0.68 0 0 Z " fill="#FCD7B9" transform="translate(152,130)"/>
<path d="M0 0 C0.66666667 1.33333333 1.33333333 2.66666667 2 4 C2.556875 4.928125 2.556875 4.928125 3.125 5.875 C4.26915841 8.65367042 4.13516968 11.02626695 4 14 C2.68 14 1.36 14 0 14 C-1.625 11.625 -1.625 11.625 -3 9 C-3.66 8.34 -4.32 7.68 -5 7 C-5 6.01 -5 5.02 -5 4 C-3.35 4 -1.7 4 0 4 C0 2.68 0 1.36 0 0 Z " fill="#C1A8BE" transform="translate(284,109)"/>
<path d="M0 0 C1.1055189 0.93590504 2.20935453 1.87379858 3.3125 2.8125 C3.92738281 3.33457031 4.54226563 3.85664062 5.17578125 4.39453125 C8.51952278 7.3373102 8.51952278 7.3373102 10 9 C10 9.66 10 10.32 10 11 C10.66 11 11.32 11 12 11 C12.66 12.32 13.32 13.64 14 15 C13.01 15.495 13.01 15.495 12 16 C7.29211241 13.21806642 4.89819386 10.76131848 2 6 C1.34 5.34 0.68 4.68 0 4 C0 2.68 0 1.36 0 0 Z " fill="#2452B2" transform="translate(308,55)"/>
<path d="M0 0 C2.875 0.5625 2.875 0.5625 6 2 C7.375 5.625 7.375 5.625 8 9 C6.63875 8.9690625 6.63875 8.9690625 5.25 8.9375 C2.57327412 8.9889755 0.53011948 9.2215017 -2 10 C-1.54177532 6.53058454 -1.10868317 3.32604951 0 0 Z M0 3 C1 5 1 5 1 5 Z " fill="#EFC2C2" transform="translate(134,52)"/>
<path d="M0 0 C3.25386455 3.09042843 5.93976204 6.40770842 8.625 10 C9.40101563 11.03125 10.17703125 12.0625 10.9765625 13.125 C12.57172863 15.39149087 13.87403957 17.48172291 15 20 C14.01 19.34 13.02 18.68 12 18 C11.01 18 10.02 18 9 18 C7.28119963 15.58655492 5.7847036 13.2444852 4.3125 10.6875 C3.68891602 9.65206055 3.68891602 9.65206055 3.05273438 8.59570312 C0 3.4075585 0 3.4075585 0 0 Z " fill="#555AA4" transform="translate(299,146)"/>
<path d="M0 0 C0.66 0.33 1.32 0.66 2 1 C1.979375 1.78375 1.95875 2.5675 1.9375 3.375 C1.81315937 5.98114961 1.81315937 5.98114961 3 8 C-5.42857143 9.42857143 -5.42857143 9.42857143 -10 7 C-7.11820494 4.75860384 -4.13601137 2.86465541 -1 1 C-0.67 0.67 -0.34 0.34 0 0 Z " fill="#F6B2AE" transform="translate(344,147)"/>
<path d="M0 0 C0 0.66 0 1.32 0 2 C5.61 2 11.22 2 17 2 C17 2.33 17 2.66 17 3 C13.39590461 3.05906119 9.79193691 3.09394639 6.1875 3.125 C4.68026367 3.15013672 4.68026367 3.15013672 3.14257812 3.17578125 C-3.78945544 3.22036024 -10.22940584 2.48266066 -17 1 C-17 0.67 -17 0.34 -17 0 C-11.23073111 -1.40333568 -5.81856895 -0.67296616 0 0 Z " fill="#587A1A" transform="translate(191,360)"/>
<path d="M0 0 C0.66 0 1.32 0 2 0 C0.41332422 3.90285767 -2.13350481 6.33520982 -5.125 9.25 C-6.03507812 10.14203125 -6.94515625 11.0340625 -7.8828125 11.953125 C-8.58148438 12.62859375 -9.28015625 13.3040625 -10 14 C-10.33 13.01 -10.66 12.02 -11 11 C-11.66 10.67 -12.32 10.34 -13 10 C-12.22914063 9.44570313 -11.45828125 8.89140625 -10.6640625 8.3203125 C-9.66117187 7.59585937 -8.65828125 6.87140625 -7.625 6.125 C-6.62726563 5.40570313 -5.62953125 4.68640625 -4.6015625 3.9453125 C-2.00530106 2.1005342 -2.00530106 2.1005342 0 0 Z " fill="#5A881D" transform="translate(316,302)"/>
<path d="M0 0 C1.125 3.75 1.125 3.75 0 6 C0.66 6 1.32 6 2 6 C1.35952602 9.44748958 0.00294981 11.84644185 -1.9375 14.75 C-2.46214844 15.54921875 -2.98679687 16.3484375 -3.52734375 17.171875 C-4.01332031 17.77515625 -4.49929688 18.3784375 -5 19 C-5.66 19 -6.32 19 -7 19 C-5.52367734 14.32497824 -3.74934146 9.80687281 -1.90234375 5.26953125 C-1.21239047 3.53419422 -0.59054468 1.77163403 0 0 Z " fill="#4369A6" transform="translate(327,281)"/>
<path d="M0 0 C0.99 0.495 0.99 0.495 2 1 C2.62852934 3.33247815 3.15535246 5.69291467 3.625 8.0625 C3.88539062 9.35285156 4.14578125 10.64320313 4.4140625 11.97265625 C4.60742188 12.97167969 4.80078125 13.97070312 5 15 C4.34 15 3.68 15 3 15 C3.33 18.63 3.66 22.26 4 26 C2.1810564 22.36211279 1.68329104 20.68043281 1.3671875 16.796875 C1.28339844 15.8171875 1.19960938 14.8375 1.11328125 13.828125 C1.03464844 12.81234375 0.95601563 11.7965625 0.875 10.75 C0.78863281 9.71875 0.70226563 8.6875 0.61328125 7.625 C0.40151817 5.08384301 0.19736846 2.54230879 0 0 Z " fill="#A6763B" transform="translate(0,195)"/>
<path d="M0 0 C2.8066927 0.78326308 4.98636341 1.8493384 7.5 3.3125 C8.29019531 3.76753906 9.08039063 4.22257812 9.89453125 4.69140625 C10.78205078 5.21541016 10.78205078 5.21541016 11.6875 5.75 C11.6875 6.41 11.6875 7.07 11.6875 7.75 C0.16585991 4.67482916 0.16585991 4.67482916 -5.3125 2.75 C-2.97783467 -0.32192807 -2.97783467 -0.32192807 0 0 Z " fill="#799A26" transform="translate(198.3125,295.25)"/>
<path d="M0 0 C6.02770138 0.47587116 10.76678289 3.19722957 16 6 C12.02623171 7.56393356 9.18622097 6.36145292 5.25 5.0625 C4.07953125 4.68222656 2.9090625 4.30195313 1.703125 3.91015625 C0.81109375 3.60980469 -0.0809375 3.30945313 -1 3 C-0.67 2.01 -0.34 1.02 0 0 Z " fill="#E1CC4D" transform="translate(210,306)"/>
<path d="M0 0 C0.33 0 0.66 0 1 0 C0.93489583 2.01822917 0.86979167 4.03645833 0.8046875 6.0546875 C0.81668311 8.23863645 0.81668311 8.23863645 3 10 C2.69347955 12.9425963 2.32728846 15.34542308 1 18 C0.01 18 -0.98 18 -2 18 C-1.34 12.06 -0.68 6.12 0 0 Z " fill="#2559B1" transform="translate(329,269)"/>
<path d="M0 0 C7.92 3.96 7.92 3.96 16 8 C16 8.66 16 9.32 16 10 C11.76677156 9.37954537 8.47709705 7.89476441 4.6875 5.9375 C3.61886719 5.38964844 2.55023438 4.84179688 1.44921875 4.27734375 C0.64097656 3.85582031 -0.16726563 3.43429688 -1 3 C-0.67 2.01 -0.34 1.02 0 0 Z " fill="#DDC963" transform="translate(268,186)"/>
<path d="M0 0 C2.9719385 1.12451727 5.33440687 2.22293791 8 4 C8 5.32 8 6.64 8 8 C5.69 7.67 3.38 7.34 1 7 C0 2.25 0 2.25 0 0 Z " fill="#538410" transform="translate(107,342)"/>
<path d="M0 0 C0.33 0 0.66 0 1 0 C1.185625 1.7015625 1.185625 1.7015625 1.375 3.4375 C1.684375 5.2009375 1.684375 5.2009375 2 7 C2.66 7.33 3.32 7.66 4 8 C4 8.99 4 9.98 4 11 C4.66 11.33 5.32 11.66 6 12 C4.04783565 13.95216435 2.46800047 14.84826645 0 16 C-1.16306443 12.45049966 -0.92365049 9.44176052 -0.5625 5.75 C-0.46066406 4.67234375 -0.35882813 3.5946875 -0.25390625 2.484375 C-0.17011719 1.66453125 -0.08632812 0.8446875 0 0 Z " fill="#234F01" transform="translate(227,230)"/>
<path d="M0 0 C6.0546875 0.390625 6.0546875 0.390625 8 1 C9.2578125 3.046875 9.2578125 3.046875 10 5 C8.58376784 5.05447047 7.16691809 5.09300508 5.75 5.125 C4.96109375 5.14820313 4.1721875 5.17140625 3.359375 5.1953125 C0.79268059 4.9828378 -0.7916067 4.28654105 -3 3 C-2.01 2.67 -1.02 2.34 0 2 C0 1.34 0 0.68 0 0 Z " fill="#538411" transform="translate(187,292)"/>
<path d="M0 0 C1.34173403 0.92543709 2.67320159 1.86577405 4 2.8125 C5.11375 3.59560547 5.11375 3.59560547 6.25 4.39453125 C6.8275 4.92433594 7.405 5.45414063 8 6 C8 6.99 8 7.98 8 9 C7.01 9.66 6.02 10.32 5 11 C4.15841464 9.73461631 3.32700252 8.46246221 2.5 7.1875 C1.80390625 6.12595703 1.80390625 6.12595703 1.09375 5.04296875 C0 3 0 3 0 0 Z " fill="#2E57AF" transform="translate(310,163)"/>
<path d="M0 0 C0.33 0 0.66 0 1 0 C2.94971382 13.22805838 2.94971382 13.22805838 -0.546875 18.19921875 C-1.02640625 18.79347656 -1.5059375 19.38773437 -2 20 C-2.05425226 17.60385874 -2.09379027 15.20896147 -2.125 12.8125 C-2.14175781 12.13896484 -2.15851563 11.46542969 -2.17578125 10.77148438 C-2.21538674 6.71192193 -1.80020002 3.65001185 0 0 Z " fill="#255101" transform="translate(241,284)"/>
<path d="M0 0 C2.60444348 -0.05394705 5.20776998 -0.09364469 7.8125 -0.125 C8.55048828 -0.14175781 9.28847656 -0.15851562 10.04882812 -0.17578125 C13.91246426 -0.21074628 15.70903668 -0.19397555 19 2 C17.35 2 15.7 2 14 2 C13.67 2.66 13.34 3.32 13 4 C8.71 3.01 4.42 2.02 0 1 C0 0.67 0 0.34 0 0 Z " fill="#2651B3" transform="translate(226,12)"/>
<path d="M0 0 C2.22909871 -0.02714735 4.45829367 -0.04646254 6.6875 -0.0625 C7.92886719 -0.07410156 9.17023438 -0.08570313 10.44921875 -0.09765625 C13.46235454 -0.01478673 16.08275339 0.29160551 19 1 C19 1.33 19 1.66 19 2 C12.95170514 2.89604368 7.1105424 3.11269443 1 3 C0.67 2.01 0.34 1.02 0 0 Z " fill="#DECA53" transform="translate(61,254)"/>
<path d="M0 0 C5.36095277 1.58921525 10.70843973 3.18972938 16 5 C16 5.66 16 6.32 16 7 C4.47835991 5.07289294 4.47835991 5.07289294 -1 3 C-0.67 2.01 -0.34 1.02 0 0 Z " fill="#80992F" transform="translate(128,353)"/>
<path d="M0 0 C3.79800524 3.67548894 7.73706207 7.52838342 8.3125 12.9375 C8.1578125 13.9584375 8.1578125 13.9584375 8 15 C7.01 15.33 6.02 15.66 5 16 C4.16280617 13.70967689 3.3301071 11.41789043 2.5 9.125 C2.14228516 8.14853516 2.14228516 8.14853516 1.77734375 7.15234375 C0 2.2265625 0 2.2265625 0 0 Z " fill="#EA2727" transform="translate(280,47)"/>
<path d="M0 0 C0.33 0 0.66 0 1 0 C1.33 2.64 1.66 5.28 2 8 C2.66 8 3.32 8 4 8 C4 7.34 4 6.68 4 6 C4.99 6.33 5.98 6.66 7 7 C5.02 9.31 3.04 11.62 1 14 C-0.32 12.35 -1.64 10.7 -3 9 C-2.34 8.67 -1.68 8.34 -1 8 C-0.53476937 6.10466658 -0.53476937 6.10466658 -0.375 3.9375 C-0.25125 2.638125 -0.1275 1.33875 0 0 Z " fill="#1740AA" transform="translate(310,70)"/>
<path d="M0 0 C1.32 0.99 2.64 1.98 4 3 C2.66749209 6.5875213 1.169283 9.8364623 -1 13 C-1.66 13 -2.32 13 -3 13 C-2.01 8.71 -1.02 4.42 0 0 Z " fill="#3963AF" transform="translate(336,270)"/>
<path d="M0 0 C2.54131358 2.30283254 4.07110295 4.67313793 5.6875 7.6875 C6.12449219 8.49574219 6.56148438 9.30398437 7.01171875 10.13671875 C7.33785156 10.75160156 7.66398437 11.36648437 8 12 C6.68 12.33 5.36 12.66 4 13 C3.32694982 11.39850114 2.66177773 9.79368971 2 8.1875 C1.62875 7.29417969 1.2575 6.40085937 0.875 5.48046875 C0 3 0 3 0 0 Z " fill="#EB2728" transform="translate(282,102)"/>
<path d="M0 0 C1.26457031 0.04640625 2.52914062 0.0928125 3.83203125 0.140625 C5.74048828 0.19476563 5.74048828 0.19476563 7.6875 0.25 C9.15123047 0.31960938 9.15123047 0.31960938 10.64453125 0.390625 C7.16236842 2.44199815 3.87177468 2.95881092 -0.10546875 3.515625 C-1.2759375 3.68320312 -2.44640625 3.85078125 -3.65234375 4.0234375 C-4.544375 4.14460938 -5.43640625 4.26578125 -6.35546875 4.390625 C-4.58051784 1.03867309 -3.85822213 0.44915275 0 0 Z " fill="#5A7E18" transform="translate(217.35546875,357.609375)"/>
<path d="M0 0 C0.66 0.66 1.32 1.32 2 2 C0.37660195 3.70884005 -1.29319053 5.37446717 -3 7 C-3.66 7 -4.32 7 -5 7 C-5 6.01 -5 5.02 -5 4 C-2.5 1.8125 -2.5 1.8125 0 0 Z M-6 7 C-5.67 7 -5.34 7 -5 7 C-4.67 8.98 -4.34 10.96 -4 13 C-4.99 13.33 -5.98 13.66 -7 14 C-7.04254356 12.00045254 -7.04080783 9.99958364 -7 8 C-6.67 7.67 -6.34 7.34 -6 7 Z " fill="#F4DBD9" transform="translate(62,37)"/>
<path d="M0 0 C0.33 0.99 0.66 1.98 1 3 C-3.455 6.96 -3.455 6.96 -8 11 C-8.66 10.67 -9.32 10.34 -10 10 C-6.92118304 6.12948725 -3.99926986 2.97088618 0 0 Z " fill="#648A1D" transform="translate(157,199)"/>
<path d="M0 0 C1 2 1 2 0.875 4 C0 6 0 6 -2.5625 7.25 C-3.366875 7.4975 -4.17125 7.745 -5 8 C-5.33 6.68 -5.66 5.36 -6 4 C-4.02 2.68 -2.04 1.36 0 0 Z " fill="#FBDCDB" transform="translate(340,145)"/>
<path d="M0 0 C1.4540625 0.0309375 1.4540625 0.0309375 2.9375 0.0625 C2.9375 1.0525 2.9375 2.0425 2.9375 3.0625 C2.2775 3.0625 1.6175 3.0625 0.9375 3.0625 C0.9375 3.7225 0.9375 4.3825 0.9375 5.0625 C-0.9375 6.125 -0.9375 6.125 -3.0625 7.0625 C-3.7225 6.7325 -4.3825 6.4025 -5.0625 6.0625 C-5.0625 5.4025 -5.0625 4.7425 -5.0625 4.0625 C-4.4025 4.0625 -3.7425 4.0625 -3.0625 4.0625 C-3.3925 3.0725 -3.7225 2.0825 -4.0625 1.0625 C-3.0625 0.0625 -3.0625 0.0625 0 0 Z " fill="#F3B5B1" transform="translate(77.0625,29.9375)"/>
<path d="M0 0 C0.66 0.33 1.32 0.66 2 1 C0.6875 3 0.6875 3 -1 5 C-1.99 5 -2.98 5 -4 5 C-4.66 6.65 -5.32 8.3 -6 10 C-6.66 10 -7.32 10 -8 10 C-8.33 10.99 -8.66 11.98 -9 13 C-8.58286812 8.1334614 -6.54534674 6.20769467 -3 3 C-2.401875 2.401875 -1.80375 1.80375 -1.1875 1.1875 C-0.795625 0.795625 -0.40375 0.40375 0 0 Z " fill="#63881E" transform="translate(164,328)"/>
<path d="M0 0 C1.98 0.66 3.96 1.32 6 2 C5.6875 3.9375 5.6875 3.9375 5 6 C2 7 2 7 -1 6 C-0.67 4.02 -0.34 2.04 0 0 Z M0 3 C1 5 1 5 1 5 Z " fill="#EBA5A5" transform="translate(134,52)"/>
<path d="M0 0 C-0.33 0.99 -0.66 1.98 -1 3 C-1.66 2.67 -2.32 2.34 -3 2 C-5.37123246 1.76970044 -7.74741943 1.58880058 -10.125 1.4375 C-11.40632812 1.35371094 -12.68765625 1.26992187 -14.0078125 1.18359375 C-15.48894531 1.09271484 -15.48894531 1.09271484 -17 1 C-17 0.67 -17 0.34 -17 0 C-15.10507254 -0.19644384 -13.20899097 -0.38177288 -11.3125 -0.5625 C-9.72888672 -0.71912109 -9.72888672 -0.71912109 -8.11328125 -0.87890625 C-5.18573914 -0.99277552 -2.82868856 -0.70848415 0 0 Z " fill="#C17E90" transform="translate(226,7)"/>
<path d="M0 0 C2 2 2 2 2.125 4.625 C2.08375 5.40875 2.0425 6.1925 2 7 C0.35 6.67 -1.3 6.34 -3 6 C-1.125 1.125 -1.125 1.125 0 0 Z " fill="#2F5C06" transform="translate(211,291)"/>
<path d="M0 0 C2.97 0.495 2.97 0.495 6 1 C6 1.66 6 2.32 6 3 C9.63 3 13.26 3 17 3 C17 3.33 17 3.66 17 4 C14.87506859 4.02693575 12.75004088 4.04636628 10.625 4.0625 C9.44164062 4.07410156 8.25828125 4.08570313 7.0390625 4.09765625 C4 4 4 4 2 3 C2 2.34 2 1.68 2 1 C1.34 0.67 0.68 0.34 0 0 Z " fill="#265201" transform="translate(239,218)"/>
<path d="M0 0 C5.61 0.33 11.22 0.66 17 1 C17 1.33 17 1.66 17 2 C7.595 2.495 7.595 2.495 -2 3 C-1.34 2.67 -0.68 2.34 0 2 C0 1.34 0 0.68 0 0 Z " fill="#77962E" transform="translate(147,291)"/>
<path d="M0 0 C1.45922693 0.11409593 2.91740598 0.24165544 4.375 0.375 C5.59316406 0.47941406 5.59316406 0.47941406 6.8359375 0.5859375 C9 1 9 1 11 3 C8.69 3.66 6.38 4.32 4 5 C3.67 4.01 3.34 3.02 3 2 C2.01 1.34 1.02 0.68 0 0 Z " fill="#5E861D" transform="translate(219,185)"/>
<path d="M0 0 C-0.375 2.4375 -0.375 2.4375 -1 5 C-1.99 5.495 -1.99 5.495 -3 6 C-3 4.68 -3 3.36 -3 2 C-4.32 2.33 -5.64 2.66 -7 3 C-4.49955934 -0.00052879 -4.2621484 0 0 0 Z " fill="#588616" transform="translate(305,313)"/>
<path d="M0 0 C2.85356058 1.42678029 3.67172689 3.14421282 5 6 C4.1875 8.3125 4.1875 8.3125 3 10 C0.59185923 6.48812804 -0.36629408 4.27343092 0 0 Z " fill="#768F28" transform="translate(13,251)"/>
<path d="M0 0 C0.33 1.32 0.66 2.64 1 4 C0.34 4 -0.32 4 -1 4 C-1 5.32 -1 6.64 -1 8 C-1.99 8 -2.98 8 -4 8 C-4.33 7.01 -4.66 6.02 -5 5 C-3.35 3.35 -1.7 1.7 0 0 Z " fill="#FEE9D9" transform="translate(151,128)"/>
<path d="M0 0 C-1.39332574 3.36720387 -2.9789286 4.9859524 -6 7 C-6.66 6.34 -7.32 5.68 -8 5 C-2.25 0 -2.25 0 0 0 Z " fill="#7A9443" transform="translate(318,302)"/>
<path d="M0 0 C0.99 0.33 1.98 0.66 3 1 C3 1.66 3 2.32 3 3 C2.34 3 1.68 3 1 3 C1.33 6.63 1.66 10.26 2 14 C0.06604999 10.13209997 -0.23289353 8.8499541 -0.125 4.75 C-0.09792969 3.41195312 -0.09792969 3.41195312 -0.0703125 2.046875 C-0.04710938 1.37140625 -0.02390625 0.6959375 0 0 Z " fill="#78892C" transform="translate(2,207)"/>
<path d="M0 0 C1.04449911 3.13349732 0.93423645 3.98968256 0 7 C-0.99 6.67 -1.98 6.34 -3 6 C-3.6875 3.9375 -3.6875 3.9375 -4 2 C-2.68 2 -1.36 2 0 2 C0 1.34 0 0.68 0 0 Z " fill="#BE8EA4" transform="translate(287,117)"/>
<path d="M0 0 C1.4606285 2.64738916 2 3.89448334 2 7 C-0.9375 6.625 -0.9375 6.625 -4 6 C-4.33 5.34 -4.66 4.68 -5 4 C-3.35 4 -1.7 4 0 4 C0 2.68 0 1.36 0 0 Z " fill="#DFC9D2" transform="translate(284,109)"/>
<path d="M0 0 C2.97 0.495 2.97 0.495 6 1 C5.401875 1.268125 4.80375 1.53625 4.1875 1.8125 C2.02775192 2.98493467 0.64209744 4.19369282 -1 6 C-1.66 5.67 -2.32 5.34 -3 5 C-2.01 3.35 -1.02 1.7 0 0 Z " fill="#264FB2" transform="translate(201,87)"/>
<path d="M0 0 C0.66 1.32 1.32 2.64 2 4 C1.01 4.33 0.02 4.66 -1 5 C-0.67 6.32 -0.34 7.64 0 9 C-0.66 9 -1.32 9 -2 9 C-2.6875 6.75 -2.6875 6.75 -3 4 C-1.5625 1.6875 -1.5625 1.6875 0 0 Z " fill="#235103" transform="translate(297,291)"/>
<path d="M0 0 C0.99 0 1.98 0 3 0 C3.33 1.98 3.66 3.96 4 6 C2.68 6 1.36 6 0 6 C0 4.02 0 2.04 0 0 Z " fill="#517D11" transform="translate(3,210)"/>
<path d="M0 0 C3.875 1.75 3.875 1.75 5 4 C3.02 4.99 3.02 4.99 1 6 C0 5 0 5 -0.0625 2.4375 C-0.041875 1.633125 -0.02125 0.82875 0 0 Z " fill="#558015" transform="translate(17,259)"/>
<path d="M0 0 C4.75 1.875 4.75 1.875 7 3 C7 3.66 7 4.32 7 5 C3.31245243 4.50168276 1.39509338 3.89932357 -1 1 C-0.67 0.67 -0.34 0.34 0 0 Z " fill="#C9BB6E" transform="translate(277,191)"/>
<path d="M0 0 C1.65 1.65 3.3 3.3 5 5 C4.67 5.99 4.34 6.98 4 8 C0 3.375 0 3.375 0 0 Z " fill="#1348B2" transform="translate(310,163)"/>
<path d="M0 0 C2 1 2 1 3 3 C-1.455 4.485 -1.455 4.485 -6 6 C-4.71034824 4.62437146 -3.37310707 3.29233607 -2 2 C-1.34 2 -0.68 2 0 2 C0 1.34 0 0.68 0 0 Z " fill="#EB2E2E" transform="translate(78,33)"/>
<path d="M0 0 C0.99 0.495 0.99 0.495 2 1 C1.01 2.485 1.01 2.485 0 4 C0 2.68 0 1.36 0 0 Z " fill="#EF9C98" transform="translate(353,129)"/>
<path d="" fill="#6A669D" transform="translate(0,0)"/>
<path d="M0 0 C0.99 0.495 0.99 0.495 2 1 C1.01 1.495 1.01 1.495 0 2 C0 1.34 0 0.68 0 0 Z " fill="#F6ABA6" transform="translate(347,150)"/>
<path d="" fill="#FCE7C0" transform="translate(0,0)"/>
<path d="M0 0 C0.99 0.495 0.99 0.495 2 1 C1.01 1.495 1.01 1.495 0 2 C0 1.34 0 0.68 0 0 Z " fill="#EF9C96" transform="translate(48,54)"/>
<path d="" fill="#5176A6" transform="translate(0,0)"/>
<path d="M0 0 C2 1 2 1 2 1 Z " fill="#86959A" transform="translate(276,186)"/>
<path d="M0 0 C2 1 2 1 2 1 Z " fill="#F18D89" transform="translate(351,154)"/>
<path d="" fill="#EA9290" transform="translate(0,0)"/>
<path d="" fill="#F8E8CE" transform="translate(0,0)"/>
<path d="M0 0 C2 1 2 1 2 1 Z " fill="#EC857F" transform="translate(44,58)"/>
<path d="" fill="#F09792" transform="translate(0,0)"/>
<path d="M0 0 C2 1 2 1 2 1 Z " fill="#9776A0" transform="translate(204,14)"/>
<path d="M0 0 C2 1 2 1 2 1 Z " fill="#B59CB7" transform="translate(220,9)"/>
<path d="" fill="#B1BA49" transform="translate(0,0)"/>
<path d="" fill="#91A42C" transform="translate(0,0)"/>
<path d="" fill="#B4B840" transform="translate(0,0)"/>
<path d="" fill="#859E27" transform="translate(0,0)"/>
<path d="" fill="#5076AA" transform="translate(0,0)"/>
<path d="" fill="#5174A9" transform="translate(0,0)"/>
<path d="" fill="#5877A7" transform="translate(0,0)"/>
<path d="" fill="#597CAA" transform="translate(0,0)"/>
<path d="" fill="#6D88A3" transform="translate(0,0)"/>
<path d="" fill="#7F92A0" transform="translate(0,0)"/>
<path d="" fill="#63639C" transform="translate(0,0)"/>
<path d="" fill="#939F99" transform="translate(0,0)"/>
<path d="" fill="#B4BC44" transform="translate(0,0)"/>
<path d="" fill="#99A195" transform="translate(0,0)"/>
<path d="" fill="#D7C967" transform="translate(0,0)"/>
<path d="" fill="#A5A996" transform="translate(0,0)"/>
<path d="" fill="#9CA499" transform="translate(0,0)"/>
<path d="" fill="#A4A89C" transform="translate(0,0)"/>
<path d="" fill="#9EA5A4" transform="translate(0,0)"/>
<path d="" fill="#8E9BAA" transform="translate(0,0)"/>
<path d="" fill="#F2938D" transform="translate(0,0)"/>
<path d="" fill="#F6A8A3" transform="translate(0,0)"/>
<path d="" fill="#FCDC9C" transform="translate(0,0)"/>
<path d="" fill="#F5B8B2" transform="translate(0,0)"/>
<path d="" fill="#FCDDA1" transform="translate(0,0)"/>
<path d="" fill="#7493C1" transform="translate(0,0)"/>
<path d="" fill="#B67F9B" transform="translate(0,0)"/>
<path d="" fill="#718EC3" transform="translate(0,0)"/>
<path d="" fill="#7B95C6" transform="translate(0,0)"/>
<path d="" fill="#E2BEC2" transform="translate(0,0)"/>
<path d="" fill="#E48484" transform="translate(0,0)"/>
<path d="" fill="#EE8D86" transform="translate(0,0)"/>
<path d="" fill="#6D679F" transform="translate(0,0)"/>
<path d="" fill="#EE8078" transform="translate(0,0)"/>
<path d="" fill="#7266A0" transform="translate(0,0)"/>
<path d="" fill="#E96C67" transform="translate(0,0)"/>
<path d="" fill="#8F95BE" transform="translate(0,0)"/>
<path d="" fill="#9A9AC0" transform="translate(0,0)"/>
</svg>
