<svg xmlns="http://www.w3.org/2000/svg" viewBox="0 0 100 100">
  <defs>
    <radialGradient id="g" cx="38%" cy="32%" r="65%">
      <stop offset="0%" stop-color="#ffffff"/>
      <stop offset="100%" stop-color="#e8e8e8"/>
    </radialGradient>
  </defs>
  <circle cx="50" cy="50" r="46" fill="url(#g)" stroke="#888" stroke-width="1.5"/>
  <!-- Red patches – USA -->
  <path d="M50 8 L63 17 L59 31 L41 31 L37 17 Z" fill="#CC0001" stroke="#888" stroke-width="0.8"/>
  <path d="M74 63 L65 78 L53 77 L48 64 L63 57 Z" fill="#CC0001" stroke="#888" stroke-width="0.8"/>
  <path d="M19 36 L22 22 L37 17 L41 31 L32 35 Z" fill="#CC0001" stroke="#888" stroke-width="0.8"/>
  <!-- Blue patches – Canada -->
  <path d="M63 17 L77 21 L80 37 L68 44 L59 31 Z" fill="#003087" stroke="#888" stroke-width="0.8"/>
  <path d="M48 64 L39 78 L26 74 L25 60 L38 56 Z" fill="#003087" stroke="#888" stroke-width="0.8"/>
  <!-- Green patches – Mexico -->
  <path d="M80 37 L85 53 L74 63 L63 57 L68 44 Z" fill="#006847" stroke="#888" stroke-width="0.8"/>
  <path d="M25 60 L15 50 L19 36 L32 35 L38 48 Z" fill="#006847" stroke="#888" stroke-width="0.8"/>
  <text x="50" y="97" font-family="Arial,sans-serif" font-size="12" font-weight="bold" fill="#333" text-anchor="middle">2026</text>
</svg>
